<svg width="986" height="337" viewBox="0 0 986 337" fill="none" xmlns="http://www.w3.org/2000/svg">
<rect width="986" height="337" fill="white"/>
<rect x="73.5" y="118.5" width="99" height="99" rx="4.5" fill="#B8E0FF" stroke="#008CF7"/>
<path d="M100.83 165.455C100.778 165.023 100.571 164.688 100.207 164.449C99.8438 164.21 99.3977 164.091 98.8693 164.091C98.483 164.091 98.1449 164.153 97.8551 164.278C97.5682 164.403 97.3438 164.575 97.1818 164.794C97.0227 165.013 96.9432 165.261 96.9432 165.54C96.9432 165.773 96.9986 165.973 97.1094 166.141C97.223 166.305 97.3679 166.443 97.544 166.554C97.7202 166.662 97.9048 166.751 98.098 166.822C98.2912 166.891 98.4688 166.946 98.6307 166.989L99.517 167.227C99.7443 167.287 99.9972 167.369 100.276 167.474C100.557 167.58 100.825 167.723 101.081 167.905C101.339 168.084 101.553 168.314 101.72 168.595C101.888 168.876 101.972 169.222 101.972 169.631C101.972 170.102 101.848 170.528 101.601 170.909C101.357 171.29 100.999 171.592 100.527 171.817C100.058 172.041 99.4886 172.153 98.8182 172.153C98.1932 172.153 97.652 172.053 97.1946 171.851C96.7401 171.649 96.3821 171.368 96.1207 171.007C95.8622 170.646 95.7159 170.227 95.6818 169.75H96.7727C96.8011 170.08 96.9119 170.352 97.1051 170.568C97.3011 170.781 97.5483 170.94 97.8466 171.045C98.1477 171.148 98.4716 171.199 98.8182 171.199C99.2216 171.199 99.5838 171.134 99.9048 171.003C100.226 170.869 100.48 170.685 100.668 170.449C100.855 170.21 100.949 169.932 100.949 169.614C100.949 169.324 100.868 169.088 100.706 168.906C100.544 168.724 100.331 168.577 100.067 168.463C99.8026 168.349 99.517 168.25 99.2102 168.165L98.1364 167.858C97.4545 167.662 96.9148 167.382 96.517 167.018C96.1193 166.655 95.9205 166.179 95.9205 165.591C95.9205 165.102 96.0526 164.676 96.3168 164.312C96.5838 163.946 96.9418 163.662 97.3906 163.46C97.8423 163.256 98.3466 163.153 98.9034 163.153C99.4659 163.153 99.9659 163.254 100.403 163.456C100.841 163.655 101.188 163.928 101.443 164.274C101.702 164.621 101.838 165.014 101.852 165.455H100.83ZM103.573 172V165.455H104.578V172H103.573ZM104.084 164.364C103.888 164.364 103.719 164.297 103.577 164.163C103.438 164.03 103.368 163.869 103.368 163.682C103.368 163.494 103.438 163.334 103.577 163.2C103.719 163.067 103.888 163 104.084 163C104.28 163 104.448 163.067 104.587 163.2C104.729 163.334 104.8 163.494 104.8 163.682C104.8 163.869 104.729 164.03 104.587 164.163C104.448 164.297 104.28 164.364 104.084 164.364ZM109.062 174.591C108.577 174.591 108.159 174.528 107.81 174.403C107.46 174.281 107.169 174.119 106.936 173.918C106.706 173.719 106.523 173.506 106.386 173.278L107.188 172.716C107.278 172.835 107.393 172.972 107.533 173.125C107.672 173.281 107.862 173.416 108.104 173.53C108.348 173.646 108.668 173.705 109.062 173.705C109.591 173.705 110.027 173.577 110.371 173.321C110.714 173.065 110.886 172.665 110.886 172.119V170.79H110.801C110.727 170.909 110.622 171.057 110.486 171.233C110.352 171.406 110.159 171.561 109.906 171.697C109.656 171.831 109.318 171.898 108.892 171.898C108.364 171.898 107.889 171.773 107.469 171.523C107.051 171.273 106.72 170.909 106.476 170.432C106.234 169.955 106.114 169.375 106.114 168.693C106.114 168.023 106.232 167.439 106.467 166.942C106.703 166.442 107.031 166.055 107.452 165.783C107.872 165.507 108.358 165.369 108.909 165.369C109.335 165.369 109.673 165.44 109.923 165.582C110.176 165.722 110.369 165.881 110.503 166.06C110.639 166.236 110.744 166.381 110.818 166.494H110.92V165.455H111.892V172.188C111.892 172.75 111.764 173.207 111.509 173.56C111.256 173.915 110.915 174.175 110.486 174.339C110.06 174.507 109.585 174.591 109.062 174.591ZM109.028 170.994C109.432 170.994 109.773 170.902 110.051 170.717C110.33 170.533 110.541 170.267 110.686 169.92C110.831 169.574 110.903 169.159 110.903 168.676C110.903 168.205 110.832 167.788 110.69 167.428C110.548 167.067 110.338 166.784 110.06 166.58C109.781 166.375 109.438 166.273 109.028 166.273C108.602 166.273 108.247 166.381 107.963 166.597C107.682 166.812 107.47 167.102 107.328 167.466C107.189 167.83 107.119 168.233 107.119 168.676C107.119 169.131 107.19 169.533 107.332 169.882C107.477 170.229 107.69 170.501 107.972 170.7C108.256 170.896 108.608 170.994 109.028 170.994ZM114.739 168.062V172H113.733V165.455H114.705V166.477H114.79C114.943 166.145 115.176 165.878 115.489 165.676C115.801 165.472 116.205 165.369 116.699 165.369C117.142 165.369 117.53 165.46 117.862 165.642C118.195 165.821 118.453 166.094 118.638 166.46C118.822 166.824 118.915 167.284 118.915 167.841V172H117.909V167.909C117.909 167.395 117.776 166.994 117.509 166.707C117.241 166.418 116.875 166.273 116.409 166.273C116.088 166.273 115.801 166.342 115.548 166.482C115.298 166.621 115.101 166.824 114.956 167.091C114.811 167.358 114.739 167.682 114.739 168.062ZM129.991 163.273H131.048V169.051C131.048 169.648 130.907 170.18 130.626 170.649C130.348 171.115 129.954 171.483 129.446 171.753C128.937 172.02 128.341 172.153 127.656 172.153C126.971 172.153 126.375 172.02 125.866 171.753C125.358 171.483 124.963 171.115 124.681 170.649C124.403 170.18 124.264 169.648 124.264 169.051V163.273H125.321V168.966C125.321 169.392 125.414 169.771 125.602 170.104C125.789 170.433 126.056 170.693 126.403 170.884C126.752 171.071 127.17 171.165 127.656 171.165C128.142 171.165 128.559 171.071 128.909 170.884C129.258 170.693 129.525 170.433 129.71 170.104C129.897 169.771 129.991 169.392 129.991 168.966V163.273ZM133.022 174.455V165.455H133.994V166.494H134.113C134.187 166.381 134.289 166.236 134.42 166.06C134.553 165.881 134.744 165.722 134.991 165.582C135.241 165.44 135.579 165.369 136.005 165.369C136.556 165.369 137.042 165.507 137.462 165.783C137.883 166.058 138.211 166.449 138.447 166.955C138.683 167.46 138.8 168.057 138.8 168.744C138.8 169.438 138.683 170.038 138.447 170.547C138.211 171.053 137.884 171.445 137.467 171.723C137.049 171.999 136.567 172.136 136.022 172.136C135.602 172.136 135.265 172.067 135.012 171.928C134.759 171.786 134.565 171.625 134.428 171.446C134.292 171.264 134.187 171.114 134.113 170.994H134.028V174.455H133.022ZM134.011 168.727C134.011 169.222 134.083 169.658 134.228 170.036C134.373 170.411 134.585 170.705 134.863 170.918C135.141 171.128 135.482 171.233 135.886 171.233C136.306 171.233 136.657 171.122 136.938 170.901C137.222 170.676 137.435 170.375 137.577 169.997C137.722 169.616 137.795 169.193 137.795 168.727C137.795 168.267 137.724 167.852 137.582 167.483C137.442 167.111 137.231 166.817 136.947 166.601C136.665 166.382 136.312 166.273 135.886 166.273C135.477 166.273 135.133 166.376 134.854 166.584C134.576 166.788 134.366 167.075 134.224 167.445C134.082 167.811 134.011 168.239 134.011 168.727Z" fill="black"/>
<rect x="222.5" y="118.5" width="99" height="99" rx="4.5" fill="#B8EAFF" stroke="#00A1E6"/>
<path d="M251.08 156H250.023C249.96 155.696 249.851 155.429 249.695 155.199C249.541 154.969 249.354 154.776 249.132 154.619C248.913 154.46 248.67 154.341 248.403 154.261C248.136 154.182 247.858 154.142 247.568 154.142C247.04 154.142 246.561 154.276 246.132 154.543C245.706 154.81 245.366 155.203 245.114 155.723C244.864 156.243 244.739 156.881 244.739 157.636C244.739 158.392 244.864 159.03 245.114 159.55C245.366 160.07 245.706 160.463 246.132 160.73C246.561 160.997 247.04 161.131 247.568 161.131C247.858 161.131 248.136 161.091 248.403 161.011C248.67 160.932 248.913 160.814 249.132 160.658C249.354 160.499 249.541 160.304 249.695 160.074C249.851 159.841 249.96 159.574 250.023 159.273H251.08C251 159.719 250.855 160.118 250.645 160.47C250.435 160.822 250.173 161.122 249.861 161.369C249.548 161.614 249.197 161.8 248.808 161.928C248.422 162.055 248.009 162.119 247.568 162.119C246.824 162.119 246.162 161.938 245.582 161.574C245.003 161.21 244.547 160.693 244.214 160.023C243.882 159.352 243.716 158.557 243.716 157.636C243.716 156.716 243.882 155.92 244.214 155.25C244.547 154.58 245.003 154.062 245.582 153.699C246.162 153.335 246.824 153.153 247.568 153.153C248.009 153.153 248.422 153.217 248.808 153.345C249.197 153.473 249.548 153.661 249.861 153.908C250.173 154.152 250.435 154.45 250.645 154.803C250.855 155.152 251 155.551 251.08 156ZM255.31 162.136C254.719 162.136 254.201 161.996 253.755 161.714C253.311 161.433 252.965 161.04 252.715 160.534C252.468 160.028 252.344 159.437 252.344 158.761C252.344 158.08 252.468 157.484 252.715 156.976C252.965 156.467 253.311 156.072 253.755 155.791C254.201 155.51 254.719 155.369 255.31 155.369C255.901 155.369 256.418 155.51 256.861 155.791C257.307 156.072 257.654 156.467 257.901 156.976C258.151 157.484 258.276 158.08 258.276 158.761C258.276 159.437 258.151 160.028 257.901 160.534C257.654 161.04 257.307 161.433 256.861 161.714C256.418 161.996 255.901 162.136 255.31 162.136ZM255.31 161.233C255.759 161.233 256.128 161.118 256.418 160.888C256.708 160.658 256.922 160.355 257.061 159.98C257.201 159.605 257.27 159.199 257.27 158.761C257.27 158.324 257.201 157.916 257.061 157.538C256.922 157.161 256.708 156.855 256.418 156.622C256.128 156.389 255.759 156.273 255.31 156.273C254.861 156.273 254.492 156.389 254.202 156.622C253.912 156.855 253.698 157.161 253.559 157.538C253.419 157.916 253.35 158.324 253.35 158.761C253.35 159.199 253.419 159.605 253.559 159.98C253.698 160.355 253.912 160.658 254.202 160.888C254.492 161.118 254.861 161.233 255.31 161.233ZM260.817 158.062V162H259.811V155.455H260.783V156.477H260.868C261.021 156.145 261.254 155.878 261.567 155.676C261.879 155.472 262.283 155.369 262.777 155.369C263.22 155.369 263.608 155.46 263.94 155.642C264.273 155.821 264.531 156.094 264.716 156.46C264.901 156.824 264.993 157.284 264.993 157.841V162H263.987V157.909C263.987 157.395 263.854 156.994 263.587 156.707C263.32 156.418 262.953 156.273 262.487 156.273C262.166 156.273 261.879 156.342 261.626 156.482C261.376 156.621 261.179 156.824 261.034 157.091C260.889 157.358 260.817 157.682 260.817 158.062ZM267.836 158.062V162H266.831V155.455H267.802V156.477H267.887C268.041 156.145 268.274 155.878 268.586 155.676C268.899 155.472 269.302 155.369 269.797 155.369C270.24 155.369 270.627 155.46 270.96 155.642C271.292 155.821 271.551 156.094 271.735 156.46C271.92 156.824 272.012 157.284 272.012 157.841V162H271.007V157.909C271.007 157.395 270.873 156.994 270.606 156.707C270.339 156.418 269.973 156.273 269.507 156.273C269.186 156.273 268.899 156.342 268.646 156.482C268.396 156.621 268.199 156.824 268.054 157.091C267.909 157.358 267.836 157.682 267.836 158.062ZM276.594 162.136C275.964 162.136 275.42 161.997 274.962 161.719C274.508 161.438 274.157 161.045 273.91 160.543C273.665 160.037 273.543 159.449 273.543 158.778C273.543 158.108 273.665 157.517 273.91 157.006C274.157 156.491 274.501 156.091 274.941 155.804C275.384 155.514 275.901 155.369 276.492 155.369C276.833 155.369 277.17 155.426 277.502 155.54C277.835 155.653 278.137 155.838 278.41 156.094C278.683 156.347 278.9 156.682 279.062 157.099C279.224 157.517 279.305 158.031 279.305 158.642V159.068H274.259V158.199H278.282C278.282 157.83 278.208 157.5 278.06 157.21C277.915 156.92 277.708 156.692 277.438 156.524C277.171 156.357 276.856 156.273 276.492 156.273C276.092 156.273 275.745 156.372 275.452 156.571C275.163 156.767 274.94 157.023 274.783 157.338C274.627 157.653 274.549 157.991 274.549 158.352V158.932C274.549 159.426 274.634 159.845 274.805 160.189C274.978 160.53 275.218 160.79 275.525 160.969C275.832 161.145 276.188 161.233 276.594 161.233C276.859 161.233 277.097 161.196 277.31 161.122C277.526 161.045 277.712 160.932 277.869 160.781C278.025 160.628 278.146 160.437 278.231 160.21L279.202 160.483C279.1 160.812 278.928 161.102 278.687 161.352C278.445 161.599 278.147 161.793 277.792 161.932C277.437 162.068 277.038 162.136 276.594 162.136ZM283.494 162.136C282.88 162.136 282.352 161.991 281.908 161.702C281.465 161.412 281.124 161.013 280.886 160.504C280.647 159.996 280.528 159.415 280.528 158.761C280.528 158.097 280.65 157.51 280.894 157.001C281.141 156.49 281.485 156.091 281.925 155.804C282.369 155.514 282.886 155.369 283.477 155.369C283.937 155.369 284.352 155.455 284.721 155.625C285.09 155.795 285.393 156.034 285.629 156.341C285.864 156.648 286.011 157.006 286.067 157.415H285.062C284.985 157.116 284.815 156.852 284.55 156.622C284.289 156.389 283.937 156.273 283.494 156.273C283.102 156.273 282.758 156.375 282.462 156.58C282.17 156.781 281.941 157.067 281.776 157.436C281.614 157.803 281.533 158.233 281.533 158.727C281.533 159.233 281.613 159.673 281.772 160.048C281.934 160.423 282.161 160.714 282.454 160.922C282.749 161.129 283.096 161.233 283.494 161.233C283.755 161.233 283.992 161.188 284.205 161.097C284.418 161.006 284.599 160.875 284.746 160.705C284.894 160.534 284.999 160.33 285.062 160.091H286.067C286.011 160.477 285.87 160.825 285.646 161.135C285.424 161.442 285.13 161.686 284.763 161.868C284.4 162.047 283.977 162.136 283.494 162.136ZM290.384 155.455V156.307H286.992V155.455H290.384ZM287.981 153.886H288.987V160.125C288.987 160.409 289.028 160.622 289.11 160.764C289.195 160.903 289.303 160.997 289.434 161.045C289.567 161.091 289.708 161.114 289.856 161.114C289.967 161.114 290.058 161.108 290.129 161.097C290.2 161.082 290.256 161.071 290.299 161.062L290.504 161.966C290.435 161.991 290.34 162.017 290.218 162.043C290.096 162.071 289.941 162.085 289.754 162.085C289.469 162.085 289.191 162.024 288.918 161.902C288.648 161.78 288.424 161.594 288.245 161.344C288.069 161.094 287.981 160.778 287.981 160.398V153.886ZM248.83 170.455C248.778 170.023 248.571 169.688 248.207 169.449C247.844 169.21 247.398 169.091 246.869 169.091C246.483 169.091 246.145 169.153 245.855 169.278C245.568 169.403 245.344 169.575 245.182 169.794C245.023 170.013 244.943 170.261 244.943 170.54C244.943 170.773 244.999 170.973 245.109 171.141C245.223 171.305 245.368 171.443 245.544 171.554C245.72 171.662 245.905 171.751 246.098 171.822C246.291 171.891 246.469 171.946 246.631 171.989L247.517 172.227C247.744 172.287 247.997 172.369 248.276 172.474C248.557 172.58 248.825 172.723 249.081 172.905C249.339 173.084 249.553 173.314 249.72 173.595C249.888 173.876 249.972 174.222 249.972 174.631C249.972 175.102 249.848 175.528 249.601 175.909C249.357 176.29 248.999 176.592 248.527 176.817C248.058 177.041 247.489 177.153 246.818 177.153C246.193 177.153 245.652 177.053 245.195 176.851C244.74 176.649 244.382 176.368 244.121 176.007C243.862 175.646 243.716 175.227 243.682 174.75H244.773C244.801 175.08 244.912 175.352 245.105 175.568C245.301 175.781 245.548 175.94 245.847 176.045C246.148 176.148 246.472 176.199 246.818 176.199C247.222 176.199 247.584 176.134 247.905 176.003C248.226 175.869 248.48 175.685 248.668 175.449C248.855 175.21 248.949 174.932 248.949 174.614C248.949 174.324 248.868 174.088 248.706 173.906C248.544 173.724 248.331 173.577 248.067 173.463C247.803 173.349 247.517 173.25 247.21 173.165L246.136 172.858C245.455 172.662 244.915 172.382 244.517 172.018C244.119 171.655 243.92 171.179 243.92 170.591C243.92 170.102 244.053 169.676 244.317 169.312C244.584 168.946 244.942 168.662 245.391 168.46C245.842 168.256 246.347 168.153 246.903 168.153C247.466 168.153 247.966 168.254 248.403 168.456C248.841 168.655 249.188 168.928 249.443 169.274C249.702 169.621 249.838 170.014 249.852 170.455H248.83ZM254.419 170.455V171.307H251.027V170.455H254.419ZM252.016 168.886H253.022V175.125C253.022 175.409 253.063 175.622 253.145 175.764C253.23 175.903 253.338 175.997 253.469 176.045C253.603 176.091 253.743 176.114 253.891 176.114C254.002 176.114 254.093 176.108 254.164 176.097C254.235 176.082 254.292 176.071 254.334 176.062L254.539 176.966C254.471 176.991 254.375 177.017 254.253 177.043C254.131 177.071 253.976 177.085 253.789 177.085C253.505 177.085 253.226 177.024 252.953 176.902C252.684 176.78 252.459 176.594 252.28 176.344C252.104 176.094 252.016 175.778 252.016 175.398V168.886ZM258.521 177.136C257.93 177.136 257.412 176.996 256.966 176.714C256.522 176.433 256.176 176.04 255.926 175.534C255.679 175.028 255.555 174.437 255.555 173.761C255.555 173.08 255.679 172.484 255.926 171.976C256.176 171.467 256.522 171.072 256.966 170.791C257.412 170.51 257.93 170.369 258.521 170.369C259.112 170.369 259.629 170.51 260.072 170.791C260.518 171.072 260.865 171.467 261.112 171.976C261.362 172.484 261.487 173.08 261.487 173.761C261.487 174.437 261.362 175.028 261.112 175.534C260.865 176.04 260.518 176.433 260.072 176.714C259.629 176.996 259.112 177.136 258.521 177.136ZM258.521 176.233C258.97 176.233 259.339 176.118 259.629 175.888C259.919 175.658 260.133 175.355 260.272 174.98C260.412 174.605 260.481 174.199 260.481 173.761C260.481 173.324 260.412 172.916 260.272 172.538C260.133 172.161 259.919 171.855 259.629 171.622C259.339 171.389 258.97 171.273 258.521 171.273C258.072 171.273 257.703 171.389 257.413 171.622C257.123 171.855 256.909 172.161 256.77 172.538C256.63 172.916 256.561 173.324 256.561 173.761C256.561 174.199 256.63 174.605 256.77 174.98C256.909 175.355 257.123 175.658 257.413 175.888C257.703 176.118 258.072 176.233 258.521 176.233ZM263.022 177V170.455H263.994V171.443H264.062C264.181 171.119 264.397 170.857 264.71 170.655C265.022 170.453 265.374 170.352 265.766 170.352C265.84 170.352 265.933 170.354 266.043 170.357C266.154 170.359 266.238 170.364 266.295 170.369V171.392C266.261 171.384 266.183 171.371 266.06 171.354C265.941 171.334 265.815 171.324 265.681 171.324C265.363 171.324 265.079 171.391 264.829 171.524C264.582 171.655 264.386 171.837 264.241 172.07C264.099 172.3 264.028 172.562 264.028 172.858V177H263.022ZM270.032 177.136C269.401 177.136 268.857 176.997 268.4 176.719C267.945 176.438 267.594 176.045 267.347 175.543C267.103 175.037 266.981 174.449 266.981 173.778C266.981 173.108 267.103 172.517 267.347 172.006C267.594 171.491 267.938 171.091 268.379 170.804C268.822 170.514 269.339 170.369 269.93 170.369C270.271 170.369 270.607 170.426 270.94 170.54C271.272 170.653 271.575 170.838 271.847 171.094C272.12 171.347 272.337 171.682 272.499 172.099C272.661 172.517 272.742 173.031 272.742 173.642V174.068H267.697V173.199H271.719C271.719 172.83 271.646 172.5 271.498 172.21C271.353 171.92 271.146 171.692 270.876 171.524C270.609 171.357 270.293 171.273 269.93 171.273C269.529 171.273 269.183 171.372 268.89 171.571C268.6 171.767 268.377 172.023 268.221 172.338C268.065 172.653 267.987 172.991 267.987 173.352V173.932C267.987 174.426 268.072 174.845 268.242 175.189C268.415 175.53 268.656 175.79 268.962 175.969C269.269 176.145 269.626 176.233 270.032 176.233C270.296 176.233 270.535 176.196 270.748 176.122C270.964 176.045 271.15 175.932 271.306 175.781C271.462 175.628 271.583 175.437 271.668 175.21L272.64 175.483C272.538 175.812 272.366 176.102 272.124 176.352C271.883 176.599 271.585 176.793 271.229 176.932C270.874 177.068 270.475 177.136 270.032 177.136Z" fill="black"/>
<rect x="376.5" y="118.5" width="99" height="99" rx="4.5" fill="#B8FFEA" stroke="#02D6B2"/>
<path d="M398.057 165V156.273H403.29V157.21H399.114V160.159H402.898V161.097H399.114V165H398.057ZM404.963 165V158.455H405.969V165H404.963ZM405.475 157.364C405.279 157.364 405.11 157.297 404.968 157.163C404.828 157.03 404.759 156.869 404.759 156.682C404.759 156.494 404.828 156.334 404.968 156.2C405.11 156.067 405.279 156 405.475 156C405.671 156 405.838 156.067 405.978 156.2C406.12 156.334 406.191 156.494 406.191 156.682C406.191 156.869 406.12 157.03 405.978 157.163C405.838 157.297 405.671 157.364 405.475 157.364ZM408.817 161.062V165H407.811V158.455H408.783V159.477H408.868C409.021 159.145 409.254 158.878 409.567 158.676C409.879 158.472 410.283 158.369 410.777 158.369C411.22 158.369 411.608 158.46 411.94 158.642C412.273 158.821 412.531 159.094 412.716 159.46C412.901 159.824 412.993 160.284 412.993 160.841V165H411.987V160.909C411.987 160.395 411.854 159.994 411.587 159.707C411.32 159.418 410.953 159.273 410.487 159.273C410.166 159.273 409.879 159.342 409.626 159.482C409.376 159.621 409.179 159.824 409.034 160.091C408.889 160.358 408.817 160.682 408.817 161.062ZM417.302 165.136C416.757 165.136 416.275 164.999 415.858 164.723C415.44 164.445 415.113 164.053 414.877 163.547C414.642 163.038 414.524 162.438 414.524 161.744C414.524 161.057 414.642 160.46 414.877 159.955C415.113 159.449 415.441 159.058 415.862 158.783C416.282 158.507 416.768 158.369 417.319 158.369C417.745 158.369 418.082 158.44 418.329 158.582C418.579 158.722 418.77 158.881 418.9 159.06C419.034 159.236 419.137 159.381 419.211 159.494H419.297V156.273H420.302V165H419.331V163.994H419.211C419.137 164.114 419.032 164.264 418.896 164.446C418.76 164.625 418.565 164.786 418.312 164.928C418.059 165.067 417.723 165.136 417.302 165.136ZM417.439 164.233C417.842 164.233 418.183 164.128 418.461 163.918C418.74 163.705 418.951 163.411 419.096 163.036C419.241 162.658 419.314 162.222 419.314 161.727C419.314 161.239 419.243 160.811 419.1 160.445C418.958 160.075 418.748 159.788 418.47 159.584C418.191 159.376 417.848 159.273 417.439 159.273C417.012 159.273 416.657 159.382 416.373 159.601C416.092 159.817 415.88 160.111 415.738 160.483C415.599 160.852 415.529 161.267 415.529 161.727C415.529 162.193 415.6 162.616 415.743 162.997C415.887 163.375 416.1 163.676 416.382 163.901C416.666 164.122 417.018 164.233 417.439 164.233ZM398.057 180V171.273H401.006C401.69 171.273 402.25 171.396 402.685 171.643C403.122 171.888 403.446 172.219 403.656 172.636C403.866 173.054 403.972 173.52 403.972 174.034C403.972 174.548 403.866 175.016 403.656 175.436C403.449 175.857 403.128 176.192 402.693 176.442C402.259 176.689 401.702 176.812 401.023 176.812H398.909V175.875H400.989C401.457 175.875 401.834 175.794 402.118 175.632C402.402 175.47 402.608 175.251 402.736 174.976C402.866 174.697 402.932 174.384 402.932 174.034C402.932 173.685 402.866 173.372 402.736 173.097C402.608 172.821 402.401 172.605 402.114 172.449C401.827 172.29 401.446 172.21 400.972 172.21H399.114V180H398.057ZM405.538 180V173.455H406.509V174.443H406.577C406.697 174.119 406.913 173.857 407.225 173.655C407.538 173.453 407.89 173.352 408.282 173.352C408.356 173.352 408.448 173.354 408.559 173.357C408.67 173.359 408.754 173.364 408.81 173.369V174.392C408.776 174.384 408.698 174.371 408.576 174.354C408.457 174.334 408.33 174.324 408.197 174.324C407.879 174.324 407.594 174.391 407.344 174.524C407.097 174.655 406.901 174.837 406.756 175.07C406.614 175.3 406.543 175.562 406.543 175.858V180H405.538ZM412.462 180.136C411.871 180.136 411.353 179.996 410.907 179.714C410.464 179.433 410.117 179.04 409.867 178.534C409.62 178.028 409.496 177.437 409.496 176.761C409.496 176.08 409.62 175.484 409.867 174.976C410.117 174.467 410.464 174.072 410.907 173.791C411.353 173.51 411.871 173.369 412.462 173.369C413.053 173.369 413.57 173.51 414.013 173.791C414.46 174.072 414.806 174.467 415.053 174.976C415.303 175.484 415.428 176.08 415.428 176.761C415.428 177.437 415.303 178.028 415.053 178.534C414.806 179.04 414.46 179.433 414.013 179.714C413.57 179.996 413.053 180.136 412.462 180.136ZM412.462 179.233C412.911 179.233 413.281 179.118 413.57 178.888C413.86 178.658 414.075 178.355 414.214 177.98C414.353 177.605 414.423 177.199 414.423 176.761C414.423 176.324 414.353 175.916 414.214 175.538C414.075 175.161 413.86 174.855 413.57 174.622C413.281 174.389 412.911 174.273 412.462 174.273C412.013 174.273 411.644 174.389 411.354 174.622C411.065 174.855 410.85 175.161 410.711 175.538C410.572 175.916 410.502 176.324 410.502 176.761C410.502 177.199 410.572 177.605 410.711 177.98C410.85 178.355 411.065 178.658 411.354 178.888C411.644 179.118 412.013 179.233 412.462 179.233ZM419.435 180.136C418.89 180.136 418.408 179.999 417.99 179.723C417.573 179.445 417.246 179.053 417.01 178.547C416.775 178.038 416.657 177.438 416.657 176.744C416.657 176.057 416.775 175.46 417.01 174.955C417.246 174.449 417.574 174.058 417.995 173.783C418.415 173.507 418.901 173.369 419.452 173.369C419.878 173.369 420.215 173.44 420.462 173.582C420.712 173.722 420.902 173.881 421.033 174.06C421.167 174.236 421.27 174.381 421.344 174.494H421.429V171.273H422.435V180H421.463V178.994H421.344C421.27 179.114 421.165 179.264 421.029 179.446C420.892 179.625 420.698 179.786 420.445 179.928C420.192 180.067 419.855 180.136 419.435 180.136ZM419.571 179.233C419.975 179.233 420.316 179.128 420.594 178.918C420.873 178.705 421.084 178.411 421.229 178.036C421.374 177.658 421.446 177.222 421.446 176.727C421.446 176.239 421.375 175.811 421.233 175.445C421.091 175.075 420.881 174.788 420.603 174.584C420.324 174.376 419.98 174.273 419.571 174.273C419.145 174.273 418.79 174.382 418.506 174.601C418.225 174.817 418.013 175.111 417.871 175.483C417.732 175.852 417.662 176.267 417.662 176.727C417.662 177.193 417.733 177.616 417.875 177.997C418.02 178.375 418.233 178.676 418.515 178.901C418.799 179.122 419.151 179.233 419.571 179.233ZM428.542 177.324V173.455H429.547V180H428.542V178.892H428.473C428.32 179.224 428.081 179.507 427.757 179.74C427.434 179.97 427.025 180.085 426.53 180.085C426.121 180.085 425.757 179.996 425.439 179.817C425.121 179.635 424.871 179.362 424.689 178.999C424.507 178.632 424.417 178.17 424.417 177.614V173.455H425.422V177.545C425.422 178.023 425.556 178.403 425.823 178.688C426.093 178.972 426.436 179.114 426.854 179.114C427.104 179.114 427.358 179.05 427.617 178.922C427.878 178.794 428.097 178.598 428.273 178.334C428.452 178.07 428.542 177.733 428.542 177.324ZM434.048 180.136C433.435 180.136 432.906 179.991 432.463 179.702C432.02 179.412 431.679 179.013 431.44 178.504C431.202 177.996 431.082 177.415 431.082 176.761C431.082 176.097 431.205 175.51 431.449 175.001C431.696 174.49 432.04 174.091 432.48 173.804C432.923 173.514 433.44 173.369 434.031 173.369C434.491 173.369 434.906 173.455 435.276 173.625C435.645 173.795 435.947 174.034 436.183 174.341C436.419 174.648 436.565 175.006 436.622 175.415H435.616C435.54 175.116 435.369 174.852 435.105 174.622C434.844 174.389 434.491 174.273 434.048 174.273C433.656 174.273 433.313 174.375 433.017 174.58C432.724 174.781 432.496 175.067 432.331 175.436C432.169 175.803 432.088 176.233 432.088 176.727C432.088 177.233 432.168 177.673 432.327 178.048C432.489 178.423 432.716 178.714 433.009 178.922C433.304 179.129 433.651 179.233 434.048 179.233C434.31 179.233 434.547 179.188 434.76 179.097C434.973 179.006 435.153 178.875 435.301 178.705C435.449 178.534 435.554 178.33 435.616 178.091H436.622C436.565 178.477 436.425 178.825 436.2 179.135C435.979 179.442 435.685 179.686 435.318 179.868C434.955 180.047 434.531 180.136 434.048 180.136ZM440.939 173.455V174.307H437.547V173.455H440.939ZM438.536 171.886H439.541V178.125C439.541 178.409 439.582 178.622 439.665 178.764C439.75 178.903 439.858 178.997 439.989 179.045C440.122 179.091 440.263 179.114 440.411 179.114C440.521 179.114 440.612 179.108 440.683 179.097C440.754 179.082 440.811 179.071 440.854 179.062L441.058 179.966C440.99 179.991 440.895 180.017 440.773 180.043C440.651 180.071 440.496 180.085 440.308 180.085C440.024 180.085 439.746 180.024 439.473 179.902C439.203 179.78 438.979 179.594 438.8 179.344C438.624 179.094 438.536 178.778 438.536 178.398V171.886ZM446.971 174.92L446.067 175.176C446.011 175.026 445.927 174.879 445.816 174.737C445.708 174.592 445.56 174.473 445.373 174.379C445.185 174.286 444.945 174.239 444.653 174.239C444.252 174.239 443.918 174.331 443.651 174.516C443.387 174.697 443.255 174.929 443.255 175.21C443.255 175.46 443.346 175.658 443.528 175.803C443.71 175.947 443.994 176.068 444.38 176.165L445.352 176.403C445.937 176.545 446.373 176.763 446.66 177.055C446.947 177.345 447.09 177.719 447.09 178.176C447.09 178.551 446.982 178.886 446.766 179.182C446.553 179.477 446.255 179.71 445.871 179.881C445.488 180.051 445.042 180.136 444.533 180.136C443.866 180.136 443.313 179.991 442.876 179.702C442.438 179.412 442.161 178.989 442.045 178.432L442.999 178.193C443.09 178.545 443.262 178.81 443.515 178.986C443.771 179.162 444.104 179.25 444.516 179.25C444.985 179.25 445.357 179.151 445.633 178.952C445.911 178.75 446.05 178.509 446.05 178.227C446.05 178 445.971 177.81 445.812 177.656C445.653 177.5 445.408 177.384 445.079 177.307L443.988 177.051C443.388 176.909 442.948 176.689 442.667 176.391C442.388 176.089 442.249 175.713 442.249 175.261C442.249 174.892 442.353 174.565 442.56 174.281C442.771 173.997 443.056 173.774 443.417 173.612C443.781 173.45 444.192 173.369 444.653 173.369C445.3 173.369 445.809 173.511 446.178 173.795C446.55 174.08 446.815 174.455 446.971 174.92Z" fill="black"/>
<rect x="523.5" y="118.5" width="99" height="99" rx="4.5" fill="#D1FFB8" stroke="#53CC11"/>
<path d="M548.114 156.273V165H547.057V156.273H548.114ZM550.096 165V158.455H551.068V159.477H551.153C551.289 159.128 551.51 158.857 551.814 158.663C552.118 158.467 552.483 158.369 552.909 158.369C553.341 158.369 553.7 158.467 553.987 158.663C554.277 158.857 554.502 159.128 554.664 159.477H554.733C554.9 159.139 555.152 158.871 555.487 158.672C555.822 158.47 556.224 158.369 556.693 158.369C557.278 158.369 557.757 158.553 558.129 158.919C558.501 159.283 558.687 159.849 558.687 160.619V165H557.681V160.619C557.681 160.136 557.549 159.791 557.285 159.584C557.021 159.376 556.71 159.273 556.352 159.273C555.892 159.273 555.535 159.412 555.282 159.69C555.029 159.966 554.903 160.315 554.903 160.739V165H553.88V160.517C553.88 160.145 553.76 159.845 553.518 159.618C553.277 159.388 552.966 159.273 552.585 159.273C552.324 159.273 552.079 159.342 551.852 159.482C551.627 159.621 551.446 159.814 551.306 160.061C551.17 160.305 551.102 160.588 551.102 160.909V165H550.096ZM560.526 167.455V158.455H561.498V159.494H561.617C561.691 159.381 561.793 159.236 561.924 159.06C562.057 158.881 562.248 158.722 562.495 158.582C562.745 158.44 563.083 158.369 563.509 158.369C564.06 158.369 564.546 158.507 564.966 158.783C565.387 159.058 565.715 159.449 565.951 159.955C566.186 160.46 566.304 161.057 566.304 161.744C566.304 162.438 566.186 163.038 565.951 163.547C565.715 164.053 565.388 164.445 564.971 164.723C564.553 164.999 564.071 165.136 563.526 165.136C563.105 165.136 562.769 165.067 562.516 164.928C562.263 164.786 562.069 164.625 561.932 164.446C561.796 164.264 561.691 164.114 561.617 163.994H561.532V167.455H560.526ZM561.515 161.727C561.515 162.222 561.587 162.658 561.732 163.036C561.877 163.411 562.088 163.705 562.367 163.918C562.645 164.128 562.986 164.233 563.39 164.233C563.81 164.233 564.161 164.122 564.442 163.901C564.726 163.676 564.939 163.375 565.081 162.997C565.226 162.616 565.299 162.193 565.299 161.727C565.299 161.267 565.228 160.852 565.086 160.483C564.946 160.111 564.735 159.817 564.451 159.601C564.169 159.382 563.816 159.273 563.39 159.273C562.98 159.273 562.637 159.376 562.358 159.584C562.08 159.788 561.87 160.075 561.728 160.445C561.586 160.811 561.515 161.239 561.515 161.727ZM570.498 165.136C569.907 165.136 569.388 164.996 568.942 164.714C568.499 164.433 568.152 164.04 567.902 163.534C567.655 163.028 567.532 162.437 567.532 161.761C567.532 161.08 567.655 160.484 567.902 159.976C568.152 159.467 568.499 159.072 568.942 158.791C569.388 158.51 569.907 158.369 570.498 158.369C571.088 158.369 571.605 158.51 572.049 158.791C572.495 159.072 572.841 159.467 573.088 159.976C573.338 160.484 573.463 161.08 573.463 161.761C573.463 162.437 573.338 163.028 573.088 163.534C572.841 164.04 572.495 164.433 572.049 164.714C571.605 164.996 571.088 165.136 570.498 165.136ZM570.498 164.233C570.946 164.233 571.316 164.118 571.605 163.888C571.895 163.658 572.11 163.355 572.249 162.98C572.388 162.605 572.458 162.199 572.458 161.761C572.458 161.324 572.388 160.916 572.249 160.538C572.11 160.161 571.895 159.855 571.605 159.622C571.316 159.389 570.946 159.273 570.498 159.273C570.049 159.273 569.679 159.389 569.39 159.622C569.1 159.855 568.885 160.161 568.746 160.538C568.607 160.916 568.537 161.324 568.537 161.761C568.537 162.199 568.607 162.605 568.746 162.98C568.885 163.355 569.1 163.658 569.39 163.888C569.679 164.118 570.049 164.233 570.498 164.233ZM574.999 165V158.455H575.97V159.443H576.038C576.158 159.119 576.374 158.857 576.686 158.655C576.999 158.453 577.351 158.352 577.743 158.352C577.817 158.352 577.909 158.354 578.02 158.357C578.131 158.359 578.214 158.364 578.271 158.369V159.392C578.237 159.384 578.159 159.371 578.037 159.354C577.918 159.334 577.791 159.324 577.658 159.324C577.339 159.324 577.055 159.391 576.805 159.524C576.558 159.655 576.362 159.837 576.217 160.07C576.075 160.3 576.004 160.562 576.004 160.858V165H574.999ZM582.72 158.455V159.307H579.328V158.455H582.72ZM580.317 156.886H581.322V163.125C581.322 163.409 581.364 163.622 581.446 163.764C581.531 163.903 581.639 163.997 581.77 164.045C581.903 164.091 582.044 164.114 582.192 164.114C582.303 164.114 582.393 164.108 582.464 164.097C582.536 164.082 582.592 164.071 582.635 164.062L582.839 164.966C582.771 164.991 582.676 165.017 582.554 165.043C582.432 165.071 582.277 165.085 582.089 165.085C581.805 165.085 581.527 165.024 581.254 164.902C580.984 164.78 580.76 164.594 580.581 164.344C580.405 164.094 580.317 163.778 580.317 163.398V156.886ZM547.057 180V171.273H550.006C550.69 171.273 551.25 171.396 551.685 171.643C552.122 171.888 552.446 172.219 552.656 172.636C552.866 173.054 552.972 173.52 552.972 174.034C552.972 174.548 552.866 175.016 552.656 175.436C552.449 175.857 552.128 176.192 551.693 176.442C551.259 176.689 550.702 176.812 550.023 176.812H547.909V175.875H549.989C550.457 175.875 550.834 175.794 551.118 175.632C551.402 175.47 551.608 175.251 551.736 174.976C551.866 174.697 551.932 174.384 551.932 174.034C551.932 173.685 551.866 173.372 551.736 173.097C551.608 172.821 551.401 172.605 551.114 172.449C550.827 172.29 550.446 172.21 549.972 172.21H548.114V180H547.057ZM554.538 180V173.455H555.509V174.443H555.577C555.697 174.119 555.913 173.857 556.225 173.655C556.538 173.453 556.89 173.352 557.282 173.352C557.356 173.352 557.448 173.354 557.559 173.357C557.67 173.359 557.754 173.364 557.81 173.369V174.392C557.776 174.384 557.698 174.371 557.576 174.354C557.457 174.334 557.33 174.324 557.197 174.324C556.879 174.324 556.594 174.391 556.344 174.524C556.097 174.655 555.901 174.837 555.756 175.07C555.614 175.3 555.543 175.562 555.543 175.858V180H554.538ZM561.462 180.136C560.871 180.136 560.353 179.996 559.907 179.714C559.464 179.433 559.117 179.04 558.867 178.534C558.62 178.028 558.496 177.437 558.496 176.761C558.496 176.08 558.62 175.484 558.867 174.976C559.117 174.467 559.464 174.072 559.907 173.791C560.353 173.51 560.871 173.369 561.462 173.369C562.053 173.369 562.57 173.51 563.013 173.791C563.46 174.072 563.806 174.467 564.053 174.976C564.303 175.484 564.428 176.08 564.428 176.761C564.428 177.437 564.303 178.028 564.053 178.534C563.806 179.04 563.46 179.433 563.013 179.714C562.57 179.996 562.053 180.136 561.462 180.136ZM561.462 179.233C561.911 179.233 562.281 179.118 562.57 178.888C562.86 178.658 563.075 178.355 563.214 177.98C563.353 177.605 563.423 177.199 563.423 176.761C563.423 176.324 563.353 175.916 563.214 175.538C563.075 175.161 562.86 174.855 562.57 174.622C562.281 174.389 561.911 174.273 561.462 174.273C561.013 174.273 560.644 174.389 560.354 174.622C560.065 174.855 559.85 175.161 559.711 175.538C559.572 175.916 559.502 176.324 559.502 176.761C559.502 177.199 559.572 177.605 559.711 177.98C559.85 178.355 560.065 178.658 560.354 178.888C560.644 179.118 561.013 179.233 561.462 179.233ZM568.435 180.136C567.89 180.136 567.408 179.999 566.99 179.723C566.573 179.445 566.246 179.053 566.01 178.547C565.775 178.038 565.657 177.438 565.657 176.744C565.657 176.057 565.775 175.46 566.01 174.955C566.246 174.449 566.574 174.058 566.995 173.783C567.415 173.507 567.901 173.369 568.452 173.369C568.878 173.369 569.215 173.44 569.462 173.582C569.712 173.722 569.902 173.881 570.033 174.06C570.167 174.236 570.27 174.381 570.344 174.494H570.429V171.273H571.435V180H570.463V178.994H570.344C570.27 179.114 570.165 179.264 570.029 179.446C569.892 179.625 569.698 179.786 569.445 179.928C569.192 180.067 568.855 180.136 568.435 180.136ZM568.571 179.233C568.975 179.233 569.316 179.128 569.594 178.918C569.873 178.705 570.084 178.411 570.229 178.036C570.374 177.658 570.446 177.222 570.446 176.727C570.446 176.239 570.375 175.811 570.233 175.445C570.091 175.075 569.881 174.788 569.603 174.584C569.324 174.376 568.98 174.273 568.571 174.273C568.145 174.273 567.79 174.382 567.506 174.601C567.225 174.817 567.013 175.111 566.871 175.483C566.732 175.852 566.662 176.267 566.662 176.727C566.662 177.193 566.733 177.616 566.875 177.997C567.02 178.375 567.233 178.676 567.515 178.901C567.799 179.122 568.151 179.233 568.571 179.233ZM577.542 177.324V173.455H578.547V180H577.542V178.892H577.473C577.32 179.224 577.081 179.507 576.757 179.74C576.434 179.97 576.025 180.085 575.53 180.085C575.121 180.085 574.757 179.996 574.439 179.817C574.121 179.635 573.871 179.362 573.689 178.999C573.507 178.632 573.417 178.17 573.417 177.614V173.455H574.422V177.545C574.422 178.023 574.556 178.403 574.823 178.688C575.093 178.972 575.436 179.114 575.854 179.114C576.104 179.114 576.358 179.05 576.617 178.922C576.878 178.794 577.097 178.598 577.273 178.334C577.452 178.07 577.542 177.733 577.542 177.324ZM583.048 180.136C582.435 180.136 581.906 179.991 581.463 179.702C581.02 179.412 580.679 179.013 580.44 178.504C580.202 177.996 580.082 177.415 580.082 176.761C580.082 176.097 580.205 175.51 580.449 175.001C580.696 174.49 581.04 174.091 581.48 173.804C581.923 173.514 582.44 173.369 583.031 173.369C583.491 173.369 583.906 173.455 584.276 173.625C584.645 173.795 584.947 174.034 585.183 174.341C585.419 174.648 585.565 175.006 585.622 175.415H584.616C584.54 175.116 584.369 174.852 584.105 174.622C583.844 174.389 583.491 174.273 583.048 174.273C582.656 174.273 582.313 174.375 582.017 174.58C581.724 174.781 581.496 175.067 581.331 175.436C581.169 175.803 581.088 176.233 581.088 176.727C581.088 177.233 581.168 177.673 581.327 178.048C581.489 178.423 581.716 178.714 582.009 178.922C582.304 179.129 582.651 179.233 583.048 179.233C583.31 179.233 583.547 179.188 583.76 179.097C583.973 179.006 584.153 178.875 584.301 178.705C584.449 178.534 584.554 178.33 584.616 178.091H585.622C585.565 178.477 585.425 178.825 585.2 179.135C584.979 179.442 584.685 179.686 584.318 179.868C583.955 180.047 583.531 180.136 583.048 180.136ZM589.939 173.455V174.307H586.547V173.455H589.939ZM587.536 171.886H588.541V178.125C588.541 178.409 588.582 178.622 588.665 178.764C588.75 178.903 588.858 178.997 588.989 179.045C589.122 179.091 589.263 179.114 589.411 179.114C589.521 179.114 589.612 179.108 589.683 179.097C589.754 179.082 589.811 179.071 589.854 179.062L590.058 179.966C589.99 179.991 589.895 180.017 589.773 180.043C589.651 180.071 589.496 180.085 589.308 180.085C589.024 180.085 588.746 180.024 588.473 179.902C588.203 179.78 587.979 179.594 587.8 179.344C587.624 179.094 587.536 178.778 587.536 178.398V171.886ZM595.971 174.92L595.067 175.176C595.011 175.026 594.927 174.879 594.816 174.737C594.708 174.592 594.56 174.473 594.373 174.379C594.185 174.286 593.945 174.239 593.653 174.239C593.252 174.239 592.918 174.331 592.651 174.516C592.387 174.697 592.255 174.929 592.255 175.21C592.255 175.46 592.346 175.658 592.528 175.803C592.71 175.947 592.994 176.068 593.38 176.165L594.352 176.403C594.937 176.545 595.373 176.763 595.66 177.055C595.947 177.345 596.09 177.719 596.09 178.176C596.09 178.551 595.982 178.886 595.766 179.182C595.553 179.477 595.255 179.71 594.871 179.881C594.488 180.051 594.042 180.136 593.533 180.136C592.866 180.136 592.313 179.991 591.876 179.702C591.438 179.412 591.161 178.989 591.045 178.432L591.999 178.193C592.09 178.545 592.262 178.81 592.515 178.986C592.771 179.162 593.104 179.25 593.516 179.25C593.985 179.25 594.357 179.151 594.633 178.952C594.911 178.75 595.05 178.509 595.05 178.227C595.05 178 594.971 177.81 594.812 177.656C594.653 177.5 594.408 177.384 594.079 177.307L592.988 177.051C592.388 176.909 591.948 176.689 591.667 176.391C591.388 176.089 591.249 175.713 591.249 175.261C591.249 174.892 591.353 174.565 591.56 174.281C591.771 173.997 592.056 173.774 592.417 173.612C592.781 173.45 593.192 173.369 593.653 173.369C594.3 173.369 594.809 173.511 595.178 173.795C595.55 174.08 595.815 174.455 595.971 174.92Z" fill="black"/>
<rect x="665.5" y="118.5" width="99" height="99" rx="4.5" fill="#FFE4B8" stroke="#FD9C00"/>
<path d="M684.057 165V156.273H687.006C687.688 156.273 688.247 156.389 688.685 156.622C689.122 156.852 689.446 157.169 689.656 157.572C689.866 157.976 689.972 158.435 689.972 158.949C689.972 159.463 689.866 159.919 689.656 160.317C689.446 160.714 689.124 161.027 688.689 161.254C688.254 161.479 687.699 161.591 687.023 161.591H684.636V160.636H686.989C687.455 160.636 687.83 160.568 688.114 160.432C688.401 160.295 688.608 160.102 688.736 159.852C688.866 159.599 688.932 159.298 688.932 158.949C688.932 158.599 688.866 158.294 688.736 158.033C688.605 157.771 688.396 157.57 688.109 157.428C687.822 157.283 687.443 157.21 686.972 157.21H685.114V165H684.057ZM688.165 161.08L690.312 165H689.085L686.972 161.08H688.165ZM694.27 165.136C693.64 165.136 693.096 164.997 692.638 164.719C692.184 164.438 691.833 164.045 691.586 163.543C691.341 163.037 691.219 162.449 691.219 161.778C691.219 161.108 691.341 160.517 691.586 160.006C691.833 159.491 692.176 159.091 692.617 158.804C693.06 158.514 693.577 158.369 694.168 158.369C694.509 158.369 694.846 158.426 695.178 158.54C695.51 158.653 695.813 158.838 696.086 159.094C696.358 159.347 696.576 159.682 696.738 160.099C696.9 160.517 696.98 161.031 696.98 161.642V162.068H691.935V161.199H695.958C695.958 160.83 695.884 160.5 695.736 160.21C695.591 159.92 695.384 159.692 695.114 159.524C694.847 159.357 694.532 159.273 694.168 159.273C693.767 159.273 693.421 159.372 693.128 159.571C692.838 159.767 692.615 160.023 692.459 160.338C692.303 160.653 692.225 160.991 692.225 161.352V161.932C692.225 162.426 692.31 162.845 692.48 163.189C692.654 163.53 692.894 163.79 693.201 163.969C693.507 164.145 693.864 164.233 694.27 164.233C694.534 164.233 694.773 164.196 694.986 164.122C695.202 164.045 695.388 163.932 695.544 163.781C695.701 163.628 695.821 163.437 695.907 163.21L696.878 163.483C696.776 163.812 696.604 164.102 696.363 164.352C696.121 164.599 695.823 164.793 695.468 164.932C695.113 165.068 694.713 165.136 694.27 165.136ZM701.169 165.136C700.556 165.136 700.027 164.991 699.584 164.702C699.141 164.412 698.8 164.013 698.561 163.504C698.323 162.996 698.203 162.415 698.203 161.761C698.203 161.097 698.326 160.51 698.57 160.001C698.817 159.49 699.161 159.091 699.601 158.804C700.044 158.514 700.561 158.369 701.152 158.369C701.613 158.369 702.027 158.455 702.397 158.625C702.766 158.795 703.069 159.034 703.304 159.341C703.54 159.648 703.686 160.006 703.743 160.415H702.738C702.661 160.116 702.49 159.852 702.226 159.622C701.965 159.389 701.613 159.273 701.169 159.273C700.777 159.273 700.434 159.375 700.138 159.58C699.846 159.781 699.617 160.067 699.452 160.436C699.29 160.803 699.209 161.233 699.209 161.727C699.209 162.233 699.289 162.673 699.448 163.048C699.61 163.423 699.837 163.714 700.13 163.922C700.425 164.129 700.772 164.233 701.169 164.233C701.431 164.233 701.668 164.188 701.881 164.097C702.094 164.006 702.275 163.875 702.422 163.705C702.57 163.534 702.675 163.33 702.738 163.091H703.743C703.686 163.477 703.546 163.825 703.321 164.135C703.1 164.442 702.806 164.686 702.439 164.868C702.076 165.047 701.652 165.136 701.169 165.136ZM707.958 165.136C707.327 165.136 706.783 164.997 706.326 164.719C705.871 164.438 705.52 164.045 705.273 163.543C705.029 163.037 704.907 162.449 704.907 161.778C704.907 161.108 705.029 160.517 705.273 160.006C705.52 159.491 705.864 159.091 706.304 158.804C706.748 158.514 707.265 158.369 707.855 158.369C708.196 158.369 708.533 158.426 708.865 158.54C709.198 158.653 709.5 158.838 709.773 159.094C710.046 159.347 710.263 159.682 710.425 160.099C710.587 160.517 710.668 161.031 710.668 161.642V162.068H705.623V161.199H709.645C709.645 160.83 709.571 160.5 709.424 160.21C709.279 159.92 709.071 159.692 708.801 159.524C708.534 159.357 708.219 159.273 707.855 159.273C707.455 159.273 707.108 159.372 706.816 159.571C706.526 159.767 706.303 160.023 706.147 160.338C705.99 160.653 705.912 160.991 705.912 161.352V161.932C705.912 162.426 705.998 162.845 706.168 163.189C706.341 163.53 706.581 163.79 706.888 163.969C707.195 164.145 707.551 164.233 707.958 164.233C708.222 164.233 708.461 164.196 708.674 164.122C708.89 164.045 709.076 163.932 709.232 163.781C709.388 163.628 709.509 163.437 709.594 163.21L710.566 163.483C710.463 163.812 710.292 164.102 710.05 164.352C709.809 164.599 709.51 164.793 709.155 164.932C708.8 165.068 708.401 165.136 707.958 165.136ZM712.198 165V158.455H713.203V165H712.198ZM712.709 157.364C712.513 157.364 712.344 157.297 712.202 157.163C712.063 157.03 711.993 156.869 711.993 156.682C711.993 156.494 712.063 156.334 712.202 156.2C712.344 156.067 712.513 156 712.709 156C712.905 156 713.073 156.067 713.212 156.2C713.354 156.334 713.425 156.494 713.425 156.682C713.425 156.869 713.354 157.03 713.212 157.163C713.073 157.297 712.905 157.364 712.709 157.364ZM720.398 158.455L717.977 165H716.955L714.534 158.455H715.625L717.432 163.67H717.5L719.307 158.455H720.398ZM724.235 165.136C723.604 165.136 723.06 164.997 722.603 164.719C722.148 164.438 721.798 164.045 721.55 163.543C721.306 163.037 721.184 162.449 721.184 161.778C721.184 161.108 721.306 160.517 721.55 160.006C721.798 159.491 722.141 159.091 722.582 158.804C723.025 158.514 723.542 158.369 724.133 158.369C724.474 158.369 724.81 158.426 725.143 158.54C725.475 158.653 725.778 158.838 726.05 159.094C726.323 159.347 726.54 159.682 726.702 160.099C726.864 160.517 726.945 161.031 726.945 161.642V162.068H721.9V161.199H725.923C725.923 160.83 725.849 160.5 725.701 160.21C725.556 159.92 725.349 159.692 725.079 159.524C724.812 159.357 724.496 159.273 724.133 159.273C723.732 159.273 723.386 159.372 723.093 159.571C722.803 159.767 722.58 160.023 722.424 160.338C722.268 160.653 722.19 160.991 722.19 161.352V161.932C722.19 162.426 722.275 162.845 722.445 163.189C722.619 163.53 722.859 163.79 723.165 163.969C723.472 164.145 723.829 164.233 724.235 164.233C724.499 164.233 724.738 164.196 724.951 164.122C725.167 164.045 725.353 163.932 725.509 163.781C725.665 163.628 725.786 163.437 725.871 163.21L726.843 163.483C726.741 163.812 726.569 164.102 726.327 164.352C726.086 164.599 725.788 164.793 725.433 164.932C725.077 165.068 724.678 165.136 724.235 165.136ZM684.057 180V171.273H689.29V172.21H685.114V175.159H688.898V176.097H685.114V180H684.057ZM690.963 180V173.455H691.969V180H690.963ZM691.475 172.364C691.279 172.364 691.11 172.297 690.968 172.163C690.828 172.03 690.759 171.869 690.759 171.682C690.759 171.494 690.828 171.334 690.968 171.2C691.11 171.067 691.279 171 691.475 171C691.671 171 691.838 171.067 691.978 171.2C692.12 171.334 692.191 171.494 692.191 171.682C692.191 171.869 692.12 172.03 691.978 172.163C691.838 172.297 691.671 172.364 691.475 172.364ZM693.811 180V173.455H694.783V174.443H694.851C694.97 174.119 695.186 173.857 695.499 173.655C695.811 173.453 696.163 173.352 696.555 173.352C696.629 173.352 696.722 173.354 696.832 173.357C696.943 173.359 697.027 173.364 697.084 173.369V174.392C697.05 174.384 696.972 174.371 696.849 174.354C696.73 174.334 696.604 174.324 696.47 174.324C696.152 174.324 695.868 174.391 695.618 174.524C695.371 174.655 695.175 174.837 695.03 175.07C694.888 175.3 694.817 175.562 694.817 175.858V180H693.811ZM702.912 174.92L702.009 175.176C701.952 175.026 701.868 174.879 701.757 174.737C701.65 174.592 701.502 174.473 701.314 174.379C701.127 174.286 700.887 174.239 700.594 174.239C700.194 174.239 699.86 174.331 699.593 174.516C699.328 174.697 699.196 174.929 699.196 175.21C699.196 175.46 699.287 175.658 699.469 175.803C699.651 175.947 699.935 176.068 700.321 176.165L701.293 176.403C701.878 176.545 702.314 176.763 702.601 177.055C702.888 177.345 703.032 177.719 703.032 178.176C703.032 178.551 702.924 178.886 702.708 179.182C702.495 179.477 702.196 179.71 701.813 179.881C701.429 180.051 700.983 180.136 700.475 180.136C699.807 180.136 699.255 179.991 698.817 179.702C698.38 179.412 698.103 178.989 697.986 178.432L698.941 178.193C699.032 178.545 699.203 178.81 699.456 178.986C699.712 179.162 700.046 179.25 700.458 179.25C700.926 179.25 701.299 179.151 701.574 178.952C701.853 178.75 701.992 178.509 701.992 178.227C701.992 178 701.912 177.81 701.753 177.656C701.594 177.5 701.35 177.384 701.02 177.307L699.929 177.051C699.33 176.909 698.89 176.689 698.608 176.391C698.33 176.089 698.191 175.713 698.191 175.261C698.191 174.892 698.294 174.565 698.502 174.281C698.712 173.997 698.998 173.774 699.358 173.612C699.722 173.45 700.134 173.369 700.594 173.369C701.242 173.369 701.75 173.511 702.12 173.795C702.492 174.08 702.756 174.455 702.912 174.92ZM707.392 173.455V174.307H704V173.455H707.392ZM704.989 171.886H705.994V178.125C705.994 178.409 706.036 178.622 706.118 178.764C706.203 178.903 706.311 178.997 706.442 179.045C706.575 179.091 706.716 179.114 706.864 179.114C706.974 179.114 707.065 179.108 707.136 179.097C707.207 179.082 707.264 179.071 707.307 179.062L707.511 179.966C707.443 179.991 707.348 180.017 707.226 180.043C707.104 180.071 706.949 180.085 706.761 180.085C706.477 180.085 706.199 180.024 705.926 179.902C705.656 179.78 705.432 179.594 705.253 179.344C705.077 179.094 704.989 178.778 704.989 178.398V171.886ZM719.78 175.636C719.78 176.557 719.614 177.352 719.281 178.023C718.949 178.693 718.493 179.21 717.913 179.574C717.334 179.938 716.672 180.119 715.928 180.119C715.183 180.119 714.521 179.938 713.942 179.574C713.362 179.21 712.906 178.693 712.574 178.023C712.241 177.352 712.075 176.557 712.075 175.636C712.075 174.716 712.241 173.92 712.574 173.25C712.906 172.58 713.362 172.062 713.942 171.699C714.521 171.335 715.183 171.153 715.928 171.153C716.672 171.153 717.334 171.335 717.913 171.699C718.493 172.062 718.949 172.58 719.281 173.25C719.614 173.92 719.78 174.716 719.78 175.636ZM718.757 175.636C718.757 174.881 718.631 174.243 718.378 173.723C718.128 173.203 717.788 172.81 717.359 172.543C716.933 172.276 716.456 172.142 715.928 172.142C715.399 172.142 714.92 172.276 714.491 172.543C714.065 172.81 713.726 173.203 713.473 173.723C713.223 174.243 713.098 174.881 713.098 175.636C713.098 176.392 713.223 177.03 713.473 177.55C713.726 178.07 714.065 178.463 714.491 178.73C714.92 178.997 715.399 179.131 715.928 179.131C716.456 179.131 716.933 178.997 717.359 178.73C717.788 178.463 718.128 178.07 718.378 177.55C718.631 177.03 718.757 176.392 718.757 175.636ZM721.42 180V173.455H722.392V174.443H722.46C722.58 174.119 722.795 173.857 723.108 173.655C723.42 173.453 723.773 173.352 724.165 173.352C724.239 173.352 724.331 173.354 724.442 173.357C724.553 173.359 724.636 173.364 724.693 173.369V174.392C724.659 174.384 724.581 174.371 724.459 174.354C724.339 174.334 724.213 174.324 724.08 174.324C723.761 174.324 723.477 174.391 723.227 174.524C722.98 174.655 722.784 174.837 722.639 175.07C722.497 175.3 722.426 175.562 722.426 175.858V180H721.42ZM728.158 180.136C727.612 180.136 727.131 179.999 726.713 179.723C726.295 179.445 725.969 179.053 725.733 178.547C725.497 178.038 725.379 177.438 725.379 176.744C725.379 176.057 725.497 175.46 725.733 174.955C725.969 174.449 726.297 174.058 726.717 173.783C727.138 173.507 727.624 173.369 728.175 173.369C728.601 173.369 728.938 173.44 729.185 173.582C729.435 173.722 729.625 173.881 729.756 174.06C729.889 174.236 729.993 174.381 730.067 174.494H730.152V171.273H731.158V180H730.186V178.994H730.067C729.993 179.114 729.888 179.264 729.751 179.446C729.615 179.625 729.42 179.786 729.168 179.928C728.915 180.067 728.578 180.136 728.158 180.136ZM728.294 179.233C728.697 179.233 729.038 179.128 729.317 178.918C729.595 178.705 729.807 178.411 729.952 178.036C730.097 177.658 730.169 177.222 730.169 176.727C730.169 176.239 730.098 175.811 729.956 175.445C729.814 175.075 729.604 174.788 729.325 174.584C729.047 174.376 728.703 174.273 728.294 174.273C727.868 174.273 727.513 174.382 727.229 174.601C726.947 174.817 726.736 175.111 726.594 175.483C726.455 175.852 726.385 176.267 726.385 176.727C726.385 177.193 726.456 177.616 726.598 177.997C726.743 178.375 726.956 178.676 727.237 178.901C727.521 179.122 727.874 179.233 728.294 179.233ZM735.884 180.136C735.253 180.136 734.709 179.997 734.251 179.719C733.797 179.438 733.446 179.045 733.199 178.543C732.955 178.037 732.832 177.449 732.832 176.778C732.832 176.108 732.955 175.517 733.199 175.006C733.446 174.491 733.79 174.091 734.23 173.804C734.673 173.514 735.19 173.369 735.781 173.369C736.122 173.369 736.459 173.426 736.791 173.54C737.124 173.653 737.426 173.838 737.699 174.094C737.972 174.347 738.189 174.682 738.351 175.099C738.513 175.517 738.594 176.031 738.594 176.642V177.068H733.548V176.199H737.571C737.571 175.83 737.497 175.5 737.349 175.21C737.205 174.92 736.997 174.692 736.727 174.524C736.46 174.357 736.145 174.273 735.781 174.273C735.381 174.273 735.034 174.372 734.741 174.571C734.452 174.767 734.229 175.023 734.072 175.338C733.916 175.653 733.838 175.991 733.838 176.352V176.932C733.838 177.426 733.923 177.845 734.094 178.189C734.267 178.53 734.507 178.79 734.814 178.969C735.121 179.145 735.477 179.233 735.884 179.233C736.148 179.233 736.386 179.196 736.599 179.122C736.815 179.045 737.001 178.932 737.158 178.781C737.314 178.628 737.435 178.437 737.52 178.21L738.491 178.483C738.389 178.812 738.217 179.102 737.976 179.352C737.734 179.599 737.436 179.793 737.081 179.932C736.726 180.068 736.327 180.136 735.884 180.136ZM740.124 180V173.455H741.095V174.443H741.163C741.283 174.119 741.499 173.857 741.811 173.655C742.124 173.453 742.476 173.352 742.868 173.352C742.942 173.352 743.034 173.354 743.145 173.357C743.256 173.359 743.339 173.364 743.396 173.369V174.392C743.362 174.384 743.284 174.371 743.162 174.354C743.043 174.334 742.916 174.324 742.783 174.324C742.464 174.324 742.18 174.391 741.93 174.524C741.683 174.655 741.487 174.837 741.342 175.07C741.2 175.3 741.129 175.562 741.129 175.858V180H740.124Z" fill="black"/>
<rect x="812.5" y="118.5" width="99" height="99" rx="4.5" fill="#FFC6B8" stroke="#FF3300"/>
<path d="M831.057 157V148.273H834.006C834.69 148.273 835.25 148.396 835.685 148.643C836.122 148.888 836.446 149.219 836.656 149.636C836.866 150.054 836.972 150.52 836.972 151.034C836.972 151.548 836.866 152.016 836.656 152.436C836.449 152.857 836.128 153.192 835.693 153.442C835.259 153.689 834.702 153.812 834.023 153.812H831.909V152.875H833.989C834.457 152.875 834.834 152.794 835.118 152.632C835.402 152.47 835.608 152.251 835.736 151.976C835.866 151.697 835.932 151.384 835.932 151.034C835.932 150.685 835.866 150.372 835.736 150.097C835.608 149.821 835.401 149.605 835.114 149.449C834.827 149.29 834.446 149.21 833.972 149.21H832.114V157H831.057ZM838.538 157V150.455H839.509V151.443H839.577C839.697 151.119 839.913 150.857 840.225 150.655C840.538 150.453 840.89 150.352 841.282 150.352C841.356 150.352 841.448 150.354 841.559 150.357C841.67 150.359 841.754 150.364 841.81 150.369V151.392C841.776 151.384 841.698 151.371 841.576 151.354C841.457 151.334 841.33 151.324 841.197 151.324C840.879 151.324 840.594 151.391 840.344 151.524C840.097 151.655 839.901 151.837 839.756 152.07C839.614 152.3 839.543 152.562 839.543 152.858V157H838.538ZM845.462 157.136C844.871 157.136 844.353 156.996 843.907 156.714C843.464 156.433 843.117 156.04 842.867 155.534C842.62 155.028 842.496 154.437 842.496 153.761C842.496 153.08 842.62 152.484 842.867 151.976C843.117 151.467 843.464 151.072 843.907 150.791C844.353 150.51 844.871 150.369 845.462 150.369C846.053 150.369 846.57 150.51 847.013 150.791C847.46 151.072 847.806 151.467 848.053 151.976C848.303 152.484 848.428 153.08 848.428 153.761C848.428 154.437 848.303 155.028 848.053 155.534C847.806 156.04 847.46 156.433 847.013 156.714C846.57 156.996 846.053 157.136 845.462 157.136ZM845.462 156.233C845.911 156.233 846.281 156.118 846.57 155.888C846.86 155.658 847.075 155.355 847.214 154.98C847.353 154.605 847.423 154.199 847.423 153.761C847.423 153.324 847.353 152.916 847.214 152.538C847.075 152.161 846.86 151.855 846.57 151.622C846.281 151.389 845.911 151.273 845.462 151.273C845.013 151.273 844.644 151.389 844.354 151.622C844.065 151.855 843.85 152.161 843.711 152.538C843.572 152.916 843.502 153.324 843.502 153.761C843.502 154.199 843.572 154.605 843.711 154.98C843.85 155.355 844.065 155.658 844.354 155.888C844.644 156.118 845.013 156.233 845.462 156.233ZM852.623 157.136C852.009 157.136 851.48 156.991 851.037 156.702C850.594 156.412 850.253 156.013 850.015 155.504C849.776 154.996 849.657 154.415 849.657 153.761C849.657 153.097 849.779 152.51 850.023 152.001C850.27 151.49 850.614 151.091 851.054 150.804C851.498 150.514 852.015 150.369 852.605 150.369C853.066 150.369 853.48 150.455 853.85 150.625C854.219 150.795 854.522 151.034 854.757 151.341C854.993 151.648 855.14 152.006 855.196 152.415H854.191C854.114 152.116 853.944 151.852 853.679 151.622C853.418 151.389 853.066 151.273 852.623 151.273C852.23 151.273 851.887 151.375 851.591 151.58C851.299 151.781 851.07 152.067 850.905 152.436C850.743 152.803 850.662 153.233 850.662 153.727C850.662 154.233 850.742 154.673 850.901 155.048C851.063 155.423 851.29 155.714 851.583 155.922C851.878 156.129 852.225 156.233 852.623 156.233C852.884 156.233 853.121 156.188 853.334 156.097C853.547 156.006 853.728 155.875 853.875 155.705C854.023 155.534 854.128 155.33 854.191 155.091H855.196C855.14 155.477 854.999 155.825 854.775 156.135C854.553 156.442 854.259 156.686 853.892 156.868C853.529 157.047 853.105 157.136 852.623 157.136ZM859.411 157.136C858.78 157.136 858.236 156.997 857.779 156.719C857.324 156.438 856.973 156.045 856.726 155.543C856.482 155.037 856.36 154.449 856.36 153.778C856.36 153.108 856.482 152.517 856.726 152.006C856.973 151.491 857.317 151.091 857.757 150.804C858.201 150.514 858.718 150.369 859.309 150.369C859.65 150.369 859.986 150.426 860.319 150.54C860.651 150.653 860.953 150.838 861.226 151.094C861.499 151.347 861.716 151.682 861.878 152.099C862.04 152.517 862.121 153.031 862.121 153.642V154.068H857.076V153.199H861.098C861.098 152.83 861.025 152.5 860.877 152.21C860.732 151.92 860.525 151.692 860.255 151.524C859.988 151.357 859.672 151.273 859.309 151.273C858.908 151.273 858.561 151.372 858.269 151.571C857.979 151.767 857.756 152.023 857.6 152.338C857.444 152.653 857.365 152.991 857.365 153.352V153.932C857.365 154.426 857.451 154.845 857.621 155.189C857.794 155.53 858.034 155.79 858.341 155.969C858.648 156.145 859.005 156.233 859.411 156.233C859.675 156.233 859.914 156.196 860.127 156.122C860.343 156.045 860.529 155.932 860.685 155.781C860.841 155.628 860.962 155.437 861.047 155.21L862.019 155.483C861.917 155.812 861.745 156.102 861.503 156.352C861.262 156.599 860.963 156.793 860.608 156.932C860.253 157.068 859.854 157.136 859.411 157.136ZM868.287 151.92L867.384 152.176C867.327 152.026 867.243 151.879 867.132 151.737C867.025 151.592 866.877 151.473 866.689 151.379C866.502 151.286 866.262 151.239 865.969 151.239C865.569 151.239 865.235 151.331 864.968 151.516C864.703 151.697 864.571 151.929 864.571 152.21C864.571 152.46 864.662 152.658 864.844 152.803C865.026 152.947 865.31 153.068 865.696 153.165L866.668 153.403C867.253 153.545 867.689 153.763 867.976 154.055C868.263 154.345 868.407 154.719 868.407 155.176C868.407 155.551 868.299 155.886 868.083 156.182C867.87 156.477 867.571 156.71 867.188 156.881C866.804 157.051 866.358 157.136 865.85 157.136C865.182 157.136 864.63 156.991 864.192 156.702C863.755 156.412 863.478 155.989 863.361 155.432L864.316 155.193C864.407 155.545 864.578 155.81 864.831 155.986C865.087 156.162 865.421 156.25 865.833 156.25C866.301 156.25 866.674 156.151 866.949 155.952C867.228 155.75 867.367 155.509 867.367 155.227C867.367 155 867.287 154.81 867.128 154.656C866.969 154.5 866.725 154.384 866.395 154.307L865.304 154.051C864.705 153.909 864.265 153.689 863.983 153.391C863.705 153.089 863.566 152.713 863.566 152.261C863.566 151.892 863.669 151.565 863.877 151.281C864.087 150.997 864.373 150.774 864.733 150.612C865.097 150.45 865.509 150.369 865.969 150.369C866.617 150.369 867.125 150.511 867.495 150.795C867.867 151.08 868.131 151.455 868.287 151.92ZM874.557 151.92L873.653 152.176C873.597 152.026 873.513 151.879 873.402 151.737C873.294 151.592 873.146 151.473 872.959 151.379C872.771 151.286 872.531 151.239 872.239 151.239C871.838 151.239 871.504 151.331 871.237 151.516C870.973 151.697 870.841 151.929 870.841 152.21C870.841 152.46 870.932 152.658 871.114 152.803C871.295 152.947 871.58 153.068 871.966 153.165L872.938 153.403C873.523 153.545 873.959 153.763 874.246 154.055C874.533 154.345 874.676 154.719 874.676 155.176C874.676 155.551 874.568 155.886 874.352 156.182C874.139 156.477 873.841 156.71 873.457 156.881C873.074 157.051 872.628 157.136 872.119 157.136C871.452 157.136 870.899 156.991 870.462 156.702C870.024 156.412 869.747 155.989 869.631 155.432L870.585 155.193C870.676 155.545 870.848 155.81 871.101 155.986C871.357 156.162 871.69 156.25 872.102 156.25C872.571 156.25 872.943 156.151 873.219 155.952C873.497 155.75 873.636 155.509 873.636 155.227C873.636 155 873.557 154.81 873.398 154.656C873.239 154.5 872.994 154.384 872.665 154.307L871.574 154.051C870.974 153.909 870.534 153.689 870.253 153.391C869.974 153.089 869.835 152.713 869.835 152.261C869.835 151.892 869.939 151.565 870.146 151.281C870.357 150.997 870.642 150.774 871.003 150.612C871.366 150.45 871.778 150.369 872.239 150.369C872.886 150.369 873.395 150.511 873.764 150.795C874.136 151.08 874.401 151.455 874.557 151.92ZM838.42 167.636C838.42 168.557 838.254 169.352 837.922 170.023C837.589 170.693 837.134 171.21 836.554 171.574C835.974 171.938 835.313 172.119 834.568 172.119C833.824 172.119 833.162 171.938 832.582 171.574C832.003 171.21 831.547 170.693 831.214 170.023C830.882 169.352 830.716 168.557 830.716 167.636C830.716 166.716 830.882 165.92 831.214 165.25C831.547 164.58 832.003 164.062 832.582 163.699C833.162 163.335 833.824 163.153 834.568 163.153C835.313 163.153 835.974 163.335 836.554 163.699C837.134 164.062 837.589 164.58 837.922 165.25C838.254 165.92 838.42 166.716 838.42 167.636ZM837.398 167.636C837.398 166.881 837.271 166.243 837.018 165.723C836.768 165.203 836.429 164.81 836 164.543C835.574 164.276 835.097 164.142 834.568 164.142C834.04 164.142 833.561 164.276 833.132 164.543C832.706 164.81 832.366 165.203 832.114 165.723C831.864 166.243 831.739 166.881 831.739 167.636C831.739 168.392 831.864 169.03 832.114 169.55C832.366 170.07 832.706 170.463 833.132 170.73C833.561 170.997 834.04 171.131 834.568 171.131C835.097 171.131 835.574 170.997 836 170.73C836.429 170.463 836.768 170.07 837.018 169.55C837.271 169.03 837.398 168.392 837.398 167.636ZM840.061 172V165.455H841.033V166.443H841.101C841.22 166.119 841.436 165.857 841.749 165.655C842.061 165.453 842.413 165.352 842.805 165.352C842.879 165.352 842.972 165.354 843.082 165.357C843.193 165.359 843.277 165.364 843.334 165.369V166.392C843.3 166.384 843.222 166.371 843.099 166.354C842.98 166.334 842.854 166.324 842.72 166.324C842.402 166.324 842.118 166.391 841.868 166.524C841.621 166.655 841.425 166.837 841.28 167.07C841.138 167.3 841.067 167.562 841.067 167.858V172H840.061ZM846.798 172.136C846.253 172.136 845.771 171.999 845.354 171.723C844.936 171.445 844.609 171.053 844.374 170.547C844.138 170.038 844.02 169.438 844.02 168.744C844.02 168.057 844.138 167.46 844.374 166.955C844.609 166.449 844.938 166.058 845.358 165.783C845.778 165.507 846.264 165.369 846.815 165.369C847.241 165.369 847.578 165.44 847.825 165.582C848.075 165.722 848.266 165.881 848.396 166.06C848.53 166.236 848.634 166.381 848.707 166.494H848.793V163.273H849.798V172H848.827V170.994H848.707C848.634 171.114 848.528 171.264 848.392 171.446C848.256 171.625 848.061 171.786 847.808 171.928C847.555 172.067 847.219 172.136 846.798 172.136ZM846.935 171.233C847.338 171.233 847.679 171.128 847.957 170.918C848.236 170.705 848.447 170.411 848.592 170.036C848.737 169.658 848.81 169.222 848.81 168.727C848.81 168.239 848.739 167.811 848.597 167.445C848.455 167.075 848.244 166.788 847.966 166.584C847.688 166.376 847.344 166.273 846.935 166.273C846.509 166.273 846.153 166.382 845.869 166.601C845.588 166.817 845.376 167.111 845.234 167.483C845.095 167.852 845.026 168.267 845.026 168.727C845.026 169.193 845.097 169.616 845.239 169.997C845.384 170.375 845.597 170.676 845.878 170.901C846.162 171.122 846.514 171.233 846.935 171.233ZM854.524 172.136C853.893 172.136 853.349 171.997 852.892 171.719C852.438 171.438 852.087 171.045 851.839 170.543C851.595 170.037 851.473 169.449 851.473 168.778C851.473 168.108 851.595 167.517 851.839 167.006C852.087 166.491 852.43 166.091 852.871 165.804C853.314 165.514 853.831 165.369 854.422 165.369C854.763 165.369 855.099 165.426 855.432 165.54C855.764 165.653 856.067 165.838 856.339 166.094C856.612 166.347 856.83 166.682 856.991 167.099C857.153 167.517 857.234 168.031 857.234 168.642V169.068H852.189V168.199H856.212C856.212 167.83 856.138 167.5 855.99 167.21C855.845 166.92 855.638 166.692 855.368 166.524C855.101 166.357 854.786 166.273 854.422 166.273C854.021 166.273 853.675 166.372 853.382 166.571C853.092 166.767 852.869 167.023 852.713 167.338C852.557 167.653 852.479 167.991 852.479 168.352V168.932C852.479 169.426 852.564 169.845 852.734 170.189C852.908 170.53 853.148 170.79 853.455 170.969C853.761 171.145 854.118 171.233 854.524 171.233C854.788 171.233 855.027 171.196 855.24 171.122C855.456 171.045 855.642 170.932 855.798 170.781C855.955 170.628 856.075 170.437 856.161 170.21L857.132 170.483C857.03 170.812 856.858 171.102 856.616 171.352C856.375 171.599 856.077 171.793 855.722 171.932C855.366 172.068 854.967 172.136 854.524 172.136ZM858.764 172V165.455H859.736V166.443H859.804C859.923 166.119 860.139 165.857 860.452 165.655C860.764 165.453 861.116 165.352 861.509 165.352C861.582 165.352 861.675 165.354 861.786 165.357C861.896 165.359 861.98 165.364 862.037 165.369V166.392C862.003 166.384 861.925 166.371 861.803 166.354C861.683 166.334 861.557 166.324 861.423 166.324C861.105 166.324 860.821 166.391 860.571 166.524C860.324 166.655 860.128 166.837 859.983 167.07C859.841 167.3 859.77 167.562 859.77 167.858V172H858.764ZM871.956 165.455L869.536 172H868.513L866.093 165.455H867.184L868.99 170.67H869.059L870.865 165.455H871.956ZM873.284 172V165.455H874.289V172H873.284ZM873.795 164.364C873.599 164.364 873.43 164.297 873.288 164.163C873.149 164.03 873.079 163.869 873.079 163.682C873.079 163.494 873.149 163.334 873.288 163.2C873.43 163.067 873.599 163 873.795 163C873.991 163 874.159 163.067 874.298 163.2C874.44 163.334 874.511 163.494 874.511 163.682C874.511 163.869 874.44 164.03 874.298 164.163C874.159 164.297 873.991 164.364 873.795 164.364ZM878.058 172.153C877.643 172.153 877.266 172.075 876.928 171.919C876.59 171.76 876.322 171.531 876.123 171.233C875.924 170.932 875.825 170.568 875.825 170.142C875.825 169.767 875.898 169.463 876.046 169.23C876.194 168.994 876.391 168.81 876.638 168.676C876.886 168.543 877.158 168.443 877.457 168.378C877.758 168.31 878.06 168.256 878.364 168.216C878.762 168.165 879.085 168.126 879.332 168.101C879.582 168.072 879.763 168.026 879.877 167.96C879.994 167.895 880.052 167.781 880.052 167.619V167.585C880.052 167.165 879.937 166.838 879.707 166.605C879.479 166.372 879.134 166.256 878.671 166.256C878.191 166.256 877.815 166.361 877.542 166.571C877.269 166.781 877.077 167.006 876.967 167.244L876.012 166.903C876.183 166.506 876.41 166.196 876.694 165.974C876.981 165.75 877.293 165.594 877.631 165.506C877.972 165.415 878.308 165.369 878.637 165.369C878.847 165.369 879.089 165.395 879.362 165.446C879.637 165.494 879.903 165.595 880.158 165.749C880.417 165.902 880.631 166.134 880.802 166.443C880.972 166.753 881.058 167.168 881.058 167.688V172H880.052V171.114H880.001C879.933 171.256 879.819 171.408 879.66 171.57C879.501 171.732 879.289 171.869 879.025 171.983C878.761 172.097 878.438 172.153 878.058 172.153ZM878.211 171.25C878.609 171.25 878.944 171.172 879.217 171.016C879.492 170.859 879.7 170.658 879.839 170.411C879.981 170.163 880.052 169.903 880.052 169.631V168.71C880.009 168.761 879.915 168.808 879.771 168.851C879.629 168.891 879.464 168.926 879.276 168.957C879.092 168.986 878.911 169.011 878.735 169.034C878.562 169.054 878.421 169.071 878.313 169.085C878.052 169.119 877.808 169.175 877.58 169.251C877.356 169.325 877.174 169.437 877.035 169.588C876.898 169.736 876.83 169.937 876.83 170.193C876.83 170.543 876.96 170.807 877.218 170.986C877.479 171.162 877.81 171.25 878.211 171.25ZM831.415 187H830.307L833.511 178.273H834.602L837.807 187H836.699L834.091 179.653H834.023L831.415 187ZM831.824 183.591H836.29V184.528H831.824V183.591ZM843.155 184.324V180.455H844.161V187H843.155V185.892H843.087C842.933 186.224 842.695 186.507 842.371 186.74C842.047 186.97 841.638 187.085 841.143 187.085C840.734 187.085 840.371 186.996 840.053 186.817C839.734 186.635 839.484 186.362 839.303 185.999C839.121 185.632 839.03 185.17 839.03 184.614V180.455H840.036V184.545C840.036 185.023 840.169 185.403 840.436 185.688C840.706 185.972 841.05 186.114 841.467 186.114C841.717 186.114 841.972 186.05 842.23 185.922C842.491 185.794 842.71 185.598 842.886 185.334C843.065 185.07 843.155 184.733 843.155 184.324ZM848.849 180.455V181.307H845.457V180.455H848.849ZM846.446 178.886H847.451V185.125C847.451 185.409 847.493 185.622 847.575 185.764C847.66 185.903 847.768 185.997 847.899 186.045C848.032 186.091 848.173 186.114 848.321 186.114C848.431 186.114 848.522 186.108 848.593 186.097C848.664 186.082 848.721 186.071 848.764 186.062L848.968 186.966C848.9 186.991 848.805 187.017 848.683 187.043C848.561 187.071 848.406 187.085 848.218 187.085C847.934 187.085 847.656 187.024 847.383 186.902C847.113 186.78 846.889 186.594 846.71 186.344C846.534 186.094 846.446 185.778 846.446 185.398V178.886ZM852.951 187.136C852.36 187.136 851.841 186.996 851.395 186.714C850.952 186.433 850.605 186.04 850.355 185.534C850.108 185.028 849.985 184.437 849.985 183.761C849.985 183.08 850.108 182.484 850.355 181.976C850.605 181.467 850.952 181.072 851.395 180.791C851.841 180.51 852.36 180.369 852.951 180.369C853.542 180.369 854.059 180.51 854.502 180.791C854.948 181.072 855.294 181.467 855.542 181.976C855.792 182.484 855.917 183.08 855.917 183.761C855.917 184.437 855.792 185.028 855.542 185.534C855.294 186.04 854.948 186.433 854.502 186.714C854.059 186.996 853.542 187.136 852.951 187.136ZM852.951 186.233C853.4 186.233 853.769 186.118 854.059 185.888C854.348 185.658 854.563 185.355 854.702 184.98C854.841 184.605 854.911 184.199 854.911 183.761C854.911 183.324 854.841 182.916 854.702 182.538C854.563 182.161 854.348 181.855 854.059 181.622C853.769 181.389 853.4 181.273 852.951 181.273C852.502 181.273 852.132 181.389 851.843 181.622C851.553 181.855 851.338 182.161 851.199 182.538C851.06 182.916 850.99 183.324 850.99 183.761C850.99 184.199 851.06 184.605 851.199 184.98C851.338 185.355 851.553 185.658 851.843 185.888C852.132 186.118 852.502 186.233 852.951 186.233ZM860.281 187H857.588V178.273H860.401C861.247 178.273 861.972 178.447 862.574 178.797C863.176 179.143 863.638 179.642 863.959 180.293C864.28 180.94 864.44 181.716 864.44 182.619C864.44 183.528 864.278 184.311 863.955 184.967C863.631 185.621 863.159 186.124 862.54 186.476C861.92 186.825 861.168 187 860.281 187ZM858.645 186.062H860.213C860.935 186.062 861.533 185.923 862.007 185.645C862.482 185.366 862.835 184.97 863.068 184.456C863.301 183.942 863.418 183.33 863.418 182.619C863.418 181.915 863.303 181.308 863.072 180.8C862.842 180.288 862.499 179.896 862.041 179.624C861.584 179.348 861.014 179.21 860.332 179.21H858.645V186.062ZM870.986 180.455C870.935 180.023 870.727 179.688 870.364 179.449C870 179.21 869.554 179.091 869.026 179.091C868.639 179.091 868.301 179.153 868.011 179.278C867.724 179.403 867.5 179.575 867.338 179.794C867.179 180.013 867.099 180.261 867.099 180.54C867.099 180.773 867.155 180.973 867.266 181.141C867.379 181.305 867.524 181.443 867.7 181.554C867.876 181.662 868.061 181.751 868.254 181.822C868.447 181.891 868.625 181.946 868.787 181.989L869.673 182.227C869.901 182.287 870.153 182.369 870.432 182.474C870.713 182.58 870.982 182.723 871.237 182.905C871.496 183.084 871.709 183.314 871.876 183.595C872.044 183.876 872.128 184.222 872.128 184.631C872.128 185.102 872.004 185.528 871.757 185.909C871.513 186.29 871.155 186.592 870.683 186.817C870.214 187.041 869.645 187.153 868.974 187.153C868.349 187.153 867.808 187.053 867.351 186.851C866.896 186.649 866.538 186.368 866.277 186.007C866.018 185.646 865.872 185.227 865.838 184.75H866.929C866.957 185.08 867.068 185.352 867.261 185.568C867.457 185.781 867.705 185.94 868.003 186.045C868.304 186.148 868.628 186.199 868.974 186.199C869.378 186.199 869.74 186.134 870.061 186.003C870.382 185.869 870.636 185.685 870.824 185.449C871.011 185.21 871.105 184.932 871.105 184.614C871.105 184.324 871.024 184.088 870.862 183.906C870.7 183.724 870.487 183.577 870.223 183.463C869.959 183.349 869.673 183.25 869.366 183.165L868.293 182.858C867.611 182.662 867.071 182.382 866.673 182.018C866.276 181.655 866.077 181.179 866.077 180.591C866.077 180.102 866.209 179.676 866.473 179.312C866.74 178.946 867.098 178.662 867.547 178.46C867.999 178.256 868.503 178.153 869.06 178.153C869.622 178.153 870.122 178.254 870.56 178.456C870.997 178.655 871.344 178.928 871.599 179.274C871.858 179.621 871.994 180.014 872.009 180.455H870.986Z" fill="black"/>
<path d="M208.354 165.354C208.549 165.158 208.549 164.842 208.354 164.646L205.172 161.464C204.976 161.269 204.66 161.269 204.464 161.464C204.269 161.66 204.269 161.976 204.464 162.172L207.293 165L204.464 167.828C204.269 168.024 204.269 168.34 204.464 168.536C204.66 168.731 204.976 168.731 205.172 168.536L208.354 165.354ZM178 165V165.5H208V165V164.5H178V165Z" fill="black"/>
<path d="M364.354 165.354C364.549 165.158 364.549 164.842 364.354 164.646L361.172 161.464C360.976 161.269 360.66 161.269 360.464 161.464C360.269 161.66 360.269 161.976 360.464 162.172L363.293 165L360.464 167.828C360.269 168.024 360.269 168.34 360.464 168.536C360.66 168.731 360.976 168.731 361.172 168.536L364.354 165.354ZM334 165V165.5H364V165V164.5H334V165Z" fill="black"/>
<path d="M515.354 165.354C515.549 165.158 515.549 164.842 515.354 164.646L512.172 161.464C511.976 161.269 511.66 161.269 511.464 161.464C511.269 161.66 511.269 161.976 511.464 162.172L514.293 165L511.464 167.828C511.269 168.024 511.269 168.34 511.464 168.536C511.66 168.731 511.976 168.731 512.172 168.536L515.354 165.354ZM485 165V165.5H515V165V164.5H485V165Z" fill="black"/>
<path d="M658.354 165.354C658.549 165.158 658.549 164.842 658.354 164.646L655.172 161.464C654.976 161.269 654.66 161.269 654.464 161.464C654.269 161.66 654.269 161.976 654.464 162.172L657.293 165L654.464 167.828C654.269 168.024 654.269 168.34 654.464 168.536C654.66 168.731 654.976 168.731 655.172 168.536L658.354 165.354ZM628 165V165.5H658V165V164.5H628V165Z" fill="black"/>
<path d="M804.354 165.354C804.549 165.158 804.549 164.842 804.354 164.646L801.172 161.464C800.976 161.269 800.66 161.269 800.464 161.464C800.269 161.66 800.269 161.976 800.464 162.172L803.293 165L800.464 167.828C800.269 168.024 800.269 168.34 800.464 168.536C800.66 168.731 800.976 168.731 801.172 168.536L804.354 165.354ZM774 165V165.5H804V165V164.5H774V165Z" fill="black"/>
<path d="M643.354 199.646C643.158 199.451 642.842 199.451 642.646 199.646L639.464 202.828C639.269 203.024 639.269 203.34 639.464 203.536C639.66 203.731 639.976 203.731 640.172 203.536L643 200.707L645.828 203.536C646.024 203.731 646.34 203.731 646.536 203.536C646.731 203.34 646.731 203.024 646.536 202.828L643.354 199.646ZM643 267H643.5V200H643H642.5V267H643Z" fill="#FF0F0F"/>
</svg>
