<svg width="979" height="337" viewBox="0 0 979 337" fill="none" xmlns="http://www.w3.org/2000/svg">
<rect width="979" height="337" fill="white"/>
<rect x="143" y="119" width="100" height="100" rx="5" fill="#87CFFF"/>
<path d="M170.83 167.455C170.778 167.023 170.571 166.688 170.207 166.449C169.844 166.21 169.398 166.091 168.869 166.091C168.483 166.091 168.145 166.153 167.855 166.278C167.568 166.403 167.344 166.575 167.182 166.794C167.023 167.013 166.943 167.261 166.943 167.54C166.943 167.773 166.999 167.973 167.109 168.141C167.223 168.305 167.368 168.443 167.544 168.554C167.72 168.662 167.905 168.751 168.098 168.822C168.291 168.891 168.469 168.946 168.631 168.989L169.517 169.227C169.744 169.287 169.997 169.369 170.276 169.474C170.557 169.58 170.825 169.723 171.081 169.905C171.339 170.084 171.553 170.314 171.72 170.595C171.888 170.876 171.972 171.222 171.972 171.631C171.972 172.102 171.848 172.528 171.601 172.909C171.357 173.29 170.999 173.592 170.527 173.817C170.058 174.041 169.489 174.153 168.818 174.153C168.193 174.153 167.652 174.053 167.195 173.851C166.74 173.649 166.382 173.368 166.121 173.007C165.862 172.646 165.716 172.227 165.682 171.75H166.773C166.801 172.08 166.912 172.352 167.105 172.568C167.301 172.781 167.548 172.94 167.847 173.045C168.148 173.148 168.472 173.199 168.818 173.199C169.222 173.199 169.584 173.134 169.905 173.003C170.226 172.869 170.48 172.685 170.668 172.449C170.855 172.21 170.949 171.932 170.949 171.614C170.949 171.324 170.868 171.088 170.706 170.906C170.544 170.724 170.331 170.577 170.067 170.463C169.803 170.349 169.517 170.25 169.21 170.165L168.136 169.858C167.455 169.662 166.915 169.382 166.517 169.018C166.119 168.655 165.92 168.179 165.92 167.591C165.92 167.102 166.053 166.676 166.317 166.312C166.584 165.946 166.942 165.662 167.391 165.46C167.842 165.256 168.347 165.153 168.903 165.153C169.466 165.153 169.966 165.254 170.403 165.456C170.841 165.655 171.188 165.928 171.443 166.274C171.702 166.621 171.838 167.014 171.852 167.455H170.83ZM173.573 174V167.455H174.578V174H173.573ZM174.084 166.364C173.888 166.364 173.719 166.297 173.577 166.163C173.438 166.03 173.368 165.869 173.368 165.682C173.368 165.494 173.438 165.334 173.577 165.2C173.719 165.067 173.888 165 174.084 165C174.28 165 174.448 165.067 174.587 165.2C174.729 165.334 174.8 165.494 174.8 165.682C174.8 165.869 174.729 166.03 174.587 166.163C174.448 166.297 174.28 166.364 174.084 166.364ZM179.062 176.591C178.577 176.591 178.159 176.528 177.81 176.403C177.46 176.281 177.169 176.119 176.936 175.918C176.706 175.719 176.523 175.506 176.386 175.278L177.188 174.716C177.278 174.835 177.393 174.972 177.533 175.125C177.672 175.281 177.862 175.416 178.104 175.53C178.348 175.646 178.668 175.705 179.062 175.705C179.591 175.705 180.027 175.577 180.371 175.321C180.714 175.065 180.886 174.665 180.886 174.119V172.79H180.801C180.727 172.909 180.622 173.057 180.486 173.233C180.352 173.406 180.159 173.561 179.906 173.697C179.656 173.831 179.318 173.898 178.892 173.898C178.364 173.898 177.889 173.773 177.469 173.523C177.051 173.273 176.72 172.909 176.476 172.432C176.234 171.955 176.114 171.375 176.114 170.693C176.114 170.023 176.232 169.439 176.467 168.942C176.703 168.442 177.031 168.055 177.452 167.783C177.872 167.507 178.358 167.369 178.909 167.369C179.335 167.369 179.673 167.44 179.923 167.582C180.176 167.722 180.369 167.881 180.503 168.06C180.639 168.236 180.744 168.381 180.818 168.494H180.92V167.455H181.892V174.188C181.892 174.75 181.764 175.207 181.509 175.56C181.256 175.915 180.915 176.175 180.486 176.339C180.06 176.507 179.585 176.591 179.062 176.591ZM179.028 172.994C179.432 172.994 179.773 172.902 180.051 172.717C180.33 172.533 180.541 172.267 180.686 171.92C180.831 171.574 180.903 171.159 180.903 170.676C180.903 170.205 180.832 169.788 180.69 169.428C180.548 169.067 180.338 168.784 180.06 168.58C179.781 168.375 179.438 168.273 179.028 168.273C178.602 168.273 178.247 168.381 177.963 168.597C177.682 168.812 177.47 169.102 177.328 169.466C177.189 169.83 177.119 170.233 177.119 170.676C177.119 171.131 177.19 171.533 177.332 171.882C177.477 172.229 177.69 172.501 177.972 172.7C178.256 172.896 178.608 172.994 179.028 172.994ZM184.739 170.062V174H183.733V167.455H184.705V168.477H184.79C184.943 168.145 185.176 167.878 185.489 167.676C185.801 167.472 186.205 167.369 186.699 167.369C187.142 167.369 187.53 167.46 187.862 167.642C188.195 167.821 188.453 168.094 188.638 168.46C188.822 168.824 188.915 169.284 188.915 169.841V174H187.909V169.909C187.909 169.395 187.776 168.994 187.509 168.707C187.241 168.418 186.875 168.273 186.409 168.273C186.088 168.273 185.801 168.342 185.548 168.482C185.298 168.621 185.101 168.824 184.956 169.091C184.811 169.358 184.739 169.682 184.739 170.062ZM199.991 165.273H201.048V171.051C201.048 171.648 200.907 172.18 200.626 172.649C200.348 173.115 199.954 173.483 199.446 173.753C198.937 174.02 198.341 174.153 197.656 174.153C196.971 174.153 196.375 174.02 195.866 173.753C195.358 173.483 194.963 173.115 194.681 172.649C194.403 172.18 194.264 171.648 194.264 171.051V165.273H195.321V170.966C195.321 171.392 195.414 171.771 195.602 172.104C195.789 172.433 196.056 172.693 196.403 172.884C196.752 173.071 197.17 173.165 197.656 173.165C198.142 173.165 198.559 173.071 198.909 172.884C199.258 172.693 199.525 172.433 199.71 172.104C199.897 171.771 199.991 171.392 199.991 170.966V165.273ZM203.022 176.455V167.455H203.994V168.494H204.113C204.187 168.381 204.289 168.236 204.42 168.06C204.553 167.881 204.744 167.722 204.991 167.582C205.241 167.44 205.579 167.369 206.005 167.369C206.556 167.369 207.042 167.507 207.462 167.783C207.883 168.058 208.211 168.449 208.447 168.955C208.683 169.46 208.8 170.057 208.8 170.744C208.8 171.438 208.683 172.038 208.447 172.547C208.211 173.053 207.884 173.445 207.467 173.723C207.049 173.999 206.567 174.136 206.022 174.136C205.602 174.136 205.265 174.067 205.012 173.928C204.759 173.786 204.565 173.625 204.428 173.446C204.292 173.264 204.187 173.114 204.113 172.994H204.028V176.455H203.022ZM204.011 170.727C204.011 171.222 204.083 171.658 204.228 172.036C204.373 172.411 204.585 172.705 204.863 172.918C205.141 173.128 205.482 173.233 205.886 173.233C206.306 173.233 206.657 173.122 206.938 172.901C207.222 172.676 207.435 172.375 207.577 171.997C207.722 171.616 207.795 171.193 207.795 170.727C207.795 170.267 207.724 169.852 207.582 169.483C207.442 169.111 207.231 168.817 206.947 168.601C206.665 168.382 206.312 168.273 205.886 168.273C205.477 168.273 205.133 168.376 204.854 168.584C204.576 168.788 204.366 169.075 204.224 169.445C204.082 169.811 204.011 170.239 204.011 170.727Z" fill="black"/>
<rect x="292" y="119" width="100" height="100" rx="5" fill="#ACDEFF"/>
<path d="M307.83 157.455C307.778 157.023 307.571 156.688 307.207 156.449C306.844 156.21 306.398 156.091 305.869 156.091C305.483 156.091 305.145 156.153 304.855 156.278C304.568 156.403 304.344 156.575 304.182 156.794C304.023 157.013 303.943 157.261 303.943 157.54C303.943 157.773 303.999 157.973 304.109 158.141C304.223 158.305 304.368 158.443 304.544 158.554C304.72 158.662 304.905 158.751 305.098 158.822C305.291 158.891 305.469 158.946 305.631 158.989L306.517 159.227C306.744 159.287 306.997 159.369 307.276 159.474C307.557 159.58 307.825 159.723 308.081 159.905C308.339 160.084 308.553 160.314 308.72 160.595C308.888 160.876 308.972 161.222 308.972 161.631C308.972 162.102 308.848 162.528 308.601 162.909C308.357 163.29 307.999 163.592 307.527 163.817C307.058 164.041 306.489 164.153 305.818 164.153C305.193 164.153 304.652 164.053 304.195 163.851C303.74 163.649 303.382 163.368 303.121 163.007C302.862 162.646 302.716 162.227 302.682 161.75H303.773C303.801 162.08 303.912 162.352 304.105 162.568C304.301 162.781 304.548 162.94 304.847 163.045C305.148 163.148 305.472 163.199 305.818 163.199C306.222 163.199 306.584 163.134 306.905 163.003C307.226 162.869 307.48 162.685 307.668 162.449C307.855 162.21 307.949 161.932 307.949 161.614C307.949 161.324 307.868 161.088 307.706 160.906C307.544 160.724 307.331 160.577 307.067 160.463C306.803 160.349 306.517 160.25 306.21 160.165L305.136 159.858C304.455 159.662 303.915 159.382 303.517 159.018C303.119 158.655 302.92 158.179 302.92 157.591C302.92 157.102 303.053 156.676 303.317 156.312C303.584 155.946 303.942 155.662 304.391 155.46C304.842 155.256 305.347 155.153 305.903 155.153C306.466 155.153 306.966 155.254 307.403 155.456C307.841 155.655 308.188 155.928 308.443 156.274C308.702 156.621 308.838 157.014 308.852 157.455H307.83ZM313.317 164.136C312.686 164.136 312.142 163.997 311.685 163.719C311.23 163.438 310.88 163.045 310.632 162.543C310.388 162.037 310.266 161.449 310.266 160.778C310.266 160.108 310.388 159.517 310.632 159.006C310.88 158.491 311.223 158.091 311.664 157.804C312.107 157.514 312.624 157.369 313.215 157.369C313.556 157.369 313.892 157.426 314.225 157.54C314.557 157.653 314.86 157.838 315.132 158.094C315.405 158.347 315.623 158.682 315.784 159.099C315.946 159.517 316.027 160.031 316.027 160.642V161.068H310.982V160.199H315.005C315.005 159.83 314.931 159.5 314.783 159.21C314.638 158.92 314.431 158.692 314.161 158.524C313.894 158.357 313.578 158.273 313.215 158.273C312.814 158.273 312.468 158.372 312.175 158.571C311.885 158.767 311.662 159.023 311.506 159.338C311.35 159.653 311.272 159.991 311.272 160.352V160.932C311.272 161.426 311.357 161.845 311.527 162.189C311.701 162.53 311.941 162.79 312.248 162.969C312.554 163.145 312.911 163.233 313.317 163.233C313.581 163.233 313.82 163.196 314.033 163.122C314.249 163.045 314.435 162.932 314.591 162.781C314.748 162.628 314.868 162.437 314.953 162.21L315.925 162.483C315.823 162.812 315.651 163.102 315.409 163.352C315.168 163.599 314.87 163.793 314.515 163.932C314.159 164.068 313.76 164.136 313.317 164.136ZM318.563 155.273V164H317.557V155.273H318.563ZM323.149 164.136C322.518 164.136 321.974 163.997 321.517 163.719C321.062 163.438 320.712 163.045 320.464 162.543C320.22 162.037 320.098 161.449 320.098 160.778C320.098 160.108 320.22 159.517 320.464 159.006C320.712 158.491 321.055 158.091 321.496 157.804C321.939 157.514 322.456 157.369 323.047 157.369C323.388 157.369 323.724 157.426 324.057 157.54C324.389 157.653 324.692 157.838 324.964 158.094C325.237 158.347 325.455 158.682 325.616 159.099C325.778 159.517 325.859 160.031 325.859 160.642V161.068H320.814V160.199H324.837C324.837 159.83 324.763 159.5 324.615 159.21C324.47 158.92 324.263 158.692 323.993 158.524C323.726 158.357 323.411 158.273 323.047 158.273C322.646 158.273 322.3 158.372 322.007 158.571C321.717 158.767 321.494 159.023 321.338 159.338C321.182 159.653 321.104 159.991 321.104 160.352V160.932C321.104 161.426 321.189 161.845 321.359 162.189C321.533 162.53 321.773 162.79 322.08 162.969C322.386 163.145 322.743 163.233 323.149 163.233C323.413 163.233 323.652 163.196 323.865 163.122C324.081 163.045 324.267 162.932 324.423 162.781C324.58 162.628 324.7 162.437 324.786 162.21L325.757 162.483C325.655 162.812 325.483 163.102 325.241 163.352C325 163.599 324.702 163.793 324.347 163.932C323.991 164.068 323.592 164.136 323.149 164.136ZM330.048 164.136C329.435 164.136 328.906 163.991 328.463 163.702C328.02 163.412 327.679 163.013 327.44 162.504C327.202 161.996 327.082 161.415 327.082 160.761C327.082 160.097 327.205 159.51 327.449 159.001C327.696 158.49 328.04 158.091 328.48 157.804C328.923 157.514 329.44 157.369 330.031 157.369C330.491 157.369 330.906 157.455 331.276 157.625C331.645 157.795 331.947 158.034 332.183 158.341C332.419 158.648 332.565 159.006 332.622 159.415H331.616C331.54 159.116 331.369 158.852 331.105 158.622C330.844 158.389 330.491 158.273 330.048 158.273C329.656 158.273 329.313 158.375 329.017 158.58C328.724 158.781 328.496 159.067 328.331 159.436C328.169 159.803 328.088 160.233 328.088 160.727C328.088 161.233 328.168 161.673 328.327 162.048C328.489 162.423 328.716 162.714 329.009 162.922C329.304 163.129 329.651 163.233 330.048 163.233C330.31 163.233 330.547 163.188 330.76 163.097C330.973 163.006 331.153 162.875 331.301 162.705C331.449 162.534 331.554 162.33 331.616 162.091H332.622C332.565 162.477 332.425 162.825 332.2 163.135C331.979 163.442 331.685 163.686 331.318 163.868C330.955 164.047 330.531 164.136 330.048 164.136ZM336.939 157.455V158.307H333.547V157.455H336.939ZM334.536 155.886H335.541V162.125C335.541 162.409 335.582 162.622 335.665 162.764C335.75 162.903 335.858 162.997 335.989 163.045C336.122 163.091 336.263 163.114 336.411 163.114C336.521 163.114 336.612 163.108 336.683 163.097C336.754 163.082 336.811 163.071 336.854 163.062L337.058 163.966C336.99 163.991 336.895 164.017 336.773 164.043C336.651 164.071 336.496 164.085 336.308 164.085C336.024 164.085 335.746 164.024 335.473 163.902C335.203 163.78 334.979 163.594 334.8 163.344C334.624 163.094 334.536 162.778 334.536 162.398V155.886ZM346.736 157.455C346.685 157.023 346.477 156.688 346.114 156.449C345.75 156.21 345.304 156.091 344.776 156.091C344.389 156.091 344.051 156.153 343.761 156.278C343.474 156.403 343.25 156.575 343.088 156.794C342.929 157.013 342.849 157.261 342.849 157.54C342.849 157.773 342.905 157.973 343.016 158.141C343.129 158.305 343.274 158.443 343.45 158.554C343.626 158.662 343.811 158.751 344.004 158.822C344.197 158.891 344.375 158.946 344.537 158.989L345.423 159.227C345.651 159.287 345.903 159.369 346.182 159.474C346.463 159.58 346.732 159.723 346.987 159.905C347.246 160.084 347.459 160.314 347.626 160.595C347.794 160.876 347.878 161.222 347.878 161.631C347.878 162.102 347.754 162.528 347.507 162.909C347.263 163.29 346.905 163.592 346.433 163.817C345.964 164.041 345.395 164.153 344.724 164.153C344.099 164.153 343.558 164.053 343.101 163.851C342.646 163.649 342.288 163.368 342.027 163.007C341.768 162.646 341.622 162.227 341.588 161.75H342.679C342.707 162.08 342.818 162.352 343.011 162.568C343.207 162.781 343.455 162.94 343.753 163.045C344.054 163.148 344.378 163.199 344.724 163.199C345.128 163.199 345.49 163.134 345.811 163.003C346.132 162.869 346.386 162.685 346.574 162.449C346.761 162.21 346.855 161.932 346.855 161.614C346.855 161.324 346.774 161.088 346.612 160.906C346.45 160.724 346.237 160.577 345.973 160.463C345.709 160.349 345.423 160.25 345.116 160.165L344.043 159.858C343.361 159.662 342.821 159.382 342.423 159.018C342.026 158.655 341.827 158.179 341.827 157.591C341.827 157.102 341.959 156.676 342.223 156.312C342.49 155.946 342.848 155.662 343.297 155.46C343.749 155.256 344.253 155.153 344.81 155.153C345.372 155.153 345.872 155.254 346.31 155.456C346.747 155.655 347.094 155.928 347.349 156.274C347.608 156.621 347.744 157.014 347.759 157.455H346.736ZM352.223 164.136C351.593 164.136 351.049 163.997 350.591 163.719C350.137 163.438 349.786 163.045 349.539 162.543C349.294 162.037 349.172 161.449 349.172 160.778C349.172 160.108 349.294 159.517 349.539 159.006C349.786 158.491 350.13 158.091 350.57 157.804C351.013 157.514 351.53 157.369 352.121 157.369C352.462 157.369 352.799 157.426 353.131 157.54C353.463 157.653 353.766 157.838 354.039 158.094C354.311 158.347 354.529 158.682 354.691 159.099C354.853 159.517 354.934 160.031 354.934 160.642V161.068H349.888V160.199H353.911C353.911 159.83 353.837 159.5 353.689 159.21C353.544 158.92 353.337 158.692 353.067 158.524C352.8 158.357 352.485 158.273 352.121 158.273C351.721 158.273 351.374 158.372 351.081 158.571C350.792 158.767 350.569 159.023 350.412 159.338C350.256 159.653 350.178 159.991 350.178 160.352V160.932C350.178 161.426 350.263 161.845 350.434 162.189C350.607 162.53 350.847 162.79 351.154 162.969C351.461 163.145 351.817 163.233 352.223 163.233C352.488 163.233 352.726 163.196 352.939 163.122C353.155 163.045 353.341 162.932 353.498 162.781C353.654 162.628 353.775 162.437 353.86 162.21L354.831 162.483C354.729 162.812 354.557 163.102 354.316 163.352C354.074 163.599 353.776 163.793 353.421 163.932C353.066 164.068 352.667 164.136 352.223 164.136ZM357.469 155.273V164H356.463V155.273H357.469ZM360.317 155.273V164H359.311V155.273H360.317ZM362.159 164V157.455H363.164V164H362.159ZM362.67 156.364C362.474 156.364 362.305 156.297 362.163 156.163C362.024 156.03 361.954 155.869 361.954 155.682C361.954 155.494 362.024 155.334 362.163 155.2C362.305 155.067 362.474 155 362.67 155C362.866 155 363.034 155.067 363.173 155.2C363.315 155.334 363.386 155.494 363.386 155.682C363.386 155.869 363.315 156.03 363.173 156.163C363.034 156.297 362.866 156.364 362.67 156.364ZM366.012 160.062V164H365.006V157.455H365.978V158.477H366.063C366.217 158.145 366.45 157.878 366.762 157.676C367.075 157.472 367.478 157.369 367.972 157.369C368.415 157.369 368.803 157.46 369.136 157.642C369.468 157.821 369.727 158.094 369.911 158.46C370.096 158.824 370.188 159.284 370.188 159.841V164H369.183V159.909C369.183 159.395 369.049 158.994 368.782 158.707C368.515 158.418 368.148 158.273 367.683 158.273C367.362 158.273 367.075 158.342 366.822 158.482C366.572 158.621 366.374 158.824 366.229 159.091C366.085 159.358 366.012 159.682 366.012 160.062ZM374.668 166.591C374.182 166.591 373.765 166.528 373.415 166.403C373.066 166.281 372.775 166.119 372.542 165.918C372.311 165.719 372.128 165.506 371.992 165.278L372.793 164.716C372.884 164.835 372.999 164.972 373.138 165.125C373.277 165.281 373.468 165.416 373.709 165.53C373.953 165.646 374.273 165.705 374.668 165.705C375.196 165.705 375.632 165.577 375.976 165.321C376.32 165.065 376.492 164.665 376.492 164.119V162.79H376.407C376.333 162.909 376.228 163.057 376.091 163.233C375.958 163.406 375.765 163.561 375.512 163.697C375.262 163.831 374.924 163.898 374.498 163.898C373.969 163.898 373.495 163.773 373.074 163.523C372.657 163.273 372.326 162.909 372.081 162.432C371.84 161.955 371.719 161.375 371.719 160.693C371.719 160.023 371.837 159.439 372.073 158.942C372.309 158.442 372.637 158.055 373.057 157.783C373.478 157.507 373.963 157.369 374.515 157.369C374.941 157.369 375.279 157.44 375.529 157.582C375.782 157.722 375.975 157.881 376.108 158.06C376.245 158.236 376.35 158.381 376.424 158.494H376.526V157.455H377.498V164.188C377.498 164.75 377.37 165.207 377.114 165.56C376.861 165.915 376.52 166.175 376.091 166.339C375.665 166.507 375.191 166.591 374.668 166.591ZM374.634 162.994C375.037 162.994 375.378 162.902 375.657 162.717C375.935 162.533 376.147 162.267 376.292 161.92C376.436 161.574 376.509 161.159 376.509 160.676C376.509 160.205 376.438 159.788 376.296 159.428C376.154 159.067 375.944 158.784 375.665 158.58C375.387 158.375 375.043 158.273 374.634 158.273C374.208 158.273 373.853 158.381 373.569 158.597C373.287 158.812 373.076 159.102 372.934 159.466C372.794 159.83 372.725 160.233 372.725 160.676C372.725 161.131 372.796 161.533 372.938 161.882C373.083 162.229 373.296 162.501 373.577 162.7C373.861 162.896 374.213 162.994 374.634 162.994ZM310.08 173H309.023C308.96 172.696 308.851 172.429 308.695 172.199C308.541 171.969 308.354 171.776 308.132 171.619C307.913 171.46 307.67 171.341 307.403 171.261C307.136 171.182 306.858 171.142 306.568 171.142C306.04 171.142 305.561 171.276 305.132 171.543C304.706 171.81 304.366 172.203 304.114 172.723C303.864 173.243 303.739 173.881 303.739 174.636C303.739 175.392 303.864 176.03 304.114 176.55C304.366 177.07 304.706 177.463 305.132 177.73C305.561 177.997 306.04 178.131 306.568 178.131C306.858 178.131 307.136 178.091 307.403 178.011C307.67 177.932 307.913 177.814 308.132 177.658C308.354 177.499 308.541 177.304 308.695 177.074C308.851 176.841 308.96 176.574 309.023 176.273H310.08C310 176.719 309.855 177.118 309.645 177.47C309.435 177.822 309.173 178.122 308.861 178.369C308.548 178.614 308.197 178.8 307.808 178.928C307.422 179.055 307.009 179.119 306.568 179.119C305.824 179.119 305.162 178.938 304.582 178.574C304.003 178.21 303.547 177.693 303.214 177.023C302.882 176.352 302.716 175.557 302.716 174.636C302.716 173.716 302.882 172.92 303.214 172.25C303.547 171.58 304.003 171.062 304.582 170.699C305.162 170.335 305.824 170.153 306.568 170.153C307.009 170.153 307.422 170.217 307.808 170.345C308.197 170.473 308.548 170.661 308.861 170.908C309.173 171.152 309.435 171.45 309.645 171.803C309.855 172.152 310 172.551 310.08 173ZM312.657 175.062V179H311.651V170.273H312.657V173.477H312.742C312.895 173.139 313.125 172.871 313.432 172.672C313.742 172.47 314.154 172.369 314.668 172.369C315.114 172.369 315.505 172.459 315.84 172.638C316.175 172.814 316.435 173.085 316.62 173.452C316.807 173.815 316.901 174.278 316.901 174.841V179H315.895V174.909C315.895 174.389 315.76 173.987 315.49 173.703C315.223 173.416 314.853 173.273 314.378 173.273C314.049 173.273 313.753 173.342 313.492 173.482C313.233 173.621 313.029 173.824 312.878 174.091C312.73 174.358 312.657 174.682 312.657 175.062ZM320.667 179.153C320.252 179.153 319.876 179.075 319.538 178.919C319.2 178.76 318.931 178.531 318.732 178.233C318.533 177.932 318.434 177.568 318.434 177.142C318.434 176.767 318.508 176.463 318.656 176.23C318.803 175.994 319.001 175.81 319.248 175.676C319.495 175.543 319.768 175.443 320.066 175.378C320.367 175.31 320.67 175.256 320.974 175.216C321.371 175.165 321.694 175.126 321.941 175.101C322.191 175.072 322.373 175.026 322.487 174.96C322.603 174.895 322.661 174.781 322.661 174.619V174.585C322.661 174.165 322.546 173.838 322.316 173.605C322.089 173.372 321.744 173.256 321.281 173.256C320.8 173.256 320.424 173.361 320.151 173.571C319.879 173.781 319.687 174.006 319.576 174.244L318.621 173.903C318.792 173.506 319.019 173.196 319.303 172.974C319.59 172.75 319.903 172.594 320.241 172.506C320.582 172.415 320.917 172.369 321.246 172.369C321.457 172.369 321.698 172.395 321.971 172.446C322.246 172.494 322.512 172.595 322.768 172.749C323.026 172.902 323.241 173.134 323.411 173.443C323.582 173.753 323.667 174.168 323.667 174.688V179H322.661V178.114H322.61C322.542 178.256 322.428 178.408 322.269 178.57C322.11 178.732 321.898 178.869 321.634 178.983C321.37 179.097 321.048 179.153 320.667 179.153ZM320.82 178.25C321.218 178.25 321.553 178.172 321.826 178.016C322.102 177.859 322.309 177.658 322.448 177.411C322.59 177.163 322.661 176.903 322.661 176.631V175.71C322.619 175.761 322.525 175.808 322.38 175.851C322.238 175.891 322.073 175.926 321.886 175.957C321.701 175.986 321.521 176.011 321.344 176.034C321.171 176.054 321.031 176.071 320.923 176.085C320.661 176.119 320.417 176.175 320.19 176.251C319.965 176.325 319.783 176.437 319.644 176.588C319.508 176.736 319.44 176.937 319.44 177.193C319.44 177.543 319.569 177.807 319.827 177.986C320.089 178.162 320.42 178.25 320.82 178.25ZM326.508 175.062V179H325.502V172.455H326.474V173.477H326.559C326.713 173.145 326.946 172.878 327.258 172.676C327.571 172.472 327.974 172.369 328.468 172.369C328.912 172.369 329.299 172.46 329.632 172.642C329.964 172.821 330.223 173.094 330.407 173.46C330.592 173.824 330.684 174.284 330.684 174.841V179H329.679V174.909C329.679 174.395 329.545 173.994 329.278 173.707C329.011 173.418 328.645 173.273 328.179 173.273C327.858 173.273 327.571 173.342 327.318 173.482C327.068 173.621 326.87 173.824 326.725 174.091C326.581 174.358 326.508 174.682 326.508 175.062ZM333.528 175.062V179H332.522V172.455H333.494V173.477H333.579C333.732 173.145 333.965 172.878 334.278 172.676C334.59 172.472 334.994 172.369 335.488 172.369C335.931 172.369 336.319 172.46 336.651 172.642C336.984 172.821 337.242 173.094 337.427 173.46C337.612 173.824 337.704 174.284 337.704 174.841V179H336.698V174.909C336.698 174.395 336.565 173.994 336.298 173.707C336.031 173.418 335.664 173.273 335.198 173.273C334.877 173.273 334.59 173.342 334.337 173.482C334.087 173.621 333.89 173.824 333.745 174.091C333.6 174.358 333.528 174.682 333.528 175.062ZM342.286 179.136C341.655 179.136 341.111 178.997 340.654 178.719C340.199 178.438 339.848 178.045 339.601 177.543C339.357 177.037 339.235 176.449 339.235 175.778C339.235 175.108 339.357 174.517 339.601 174.006C339.848 173.491 340.192 173.091 340.632 172.804C341.076 172.514 341.593 172.369 342.184 172.369C342.525 172.369 342.861 172.426 343.194 172.54C343.526 172.653 343.828 172.838 344.101 173.094C344.374 173.347 344.591 173.682 344.753 174.099C344.915 174.517 344.996 175.031 344.996 175.642V176.068H339.951V175.199H343.973C343.973 174.83 343.9 174.5 343.752 174.21C343.607 173.92 343.4 173.692 343.13 173.524C342.863 173.357 342.547 173.273 342.184 173.273C341.783 173.273 341.436 173.372 341.144 173.571C340.854 173.767 340.631 174.023 340.475 174.338C340.319 174.653 340.24 174.991 340.24 175.352V175.932C340.24 176.426 340.326 176.845 340.496 177.189C340.669 177.53 340.909 177.79 341.216 177.969C341.523 178.145 341.88 178.233 342.286 178.233C342.55 178.233 342.789 178.196 343.002 178.122C343.218 178.045 343.404 177.932 343.56 177.781C343.716 177.628 343.837 177.437 343.922 177.21L344.894 177.483C344.792 177.812 344.62 178.102 344.378 178.352C344.137 178.599 343.838 178.793 343.483 178.932C343.128 179.068 342.729 179.136 342.286 179.136ZM347.532 170.273V179H346.526V170.273H347.532Z" fill="black"/>
<rect x="446" y="119" width="100" height="100" rx="5" fill="#B8E3FF"/>
<path d="M468.057 166V157.273H471.006C471.69 157.273 472.25 157.396 472.685 157.643C473.122 157.888 473.446 158.219 473.656 158.636C473.866 159.054 473.972 159.52 473.972 160.034C473.972 160.548 473.866 161.016 473.656 161.436C473.449 161.857 473.128 162.192 472.693 162.442C472.259 162.689 471.702 162.812 471.023 162.812H468.909V161.875H470.989C471.457 161.875 471.834 161.794 472.118 161.632C472.402 161.47 472.608 161.251 472.736 160.976C472.866 160.697 472.932 160.384 472.932 160.034C472.932 159.685 472.866 159.372 472.736 159.097C472.608 158.821 472.401 158.605 472.114 158.449C471.827 158.29 471.446 158.21 470.972 158.21H469.114V166H468.057ZM475.538 166V159.455H476.509V160.443H476.577C476.697 160.119 476.913 159.857 477.225 159.655C477.538 159.453 477.89 159.352 478.282 159.352C478.356 159.352 478.448 159.354 478.559 159.357C478.67 159.359 478.754 159.364 478.81 159.369V160.392C478.776 160.384 478.698 160.371 478.576 160.354C478.457 160.334 478.33 160.324 478.197 160.324C477.879 160.324 477.594 160.391 477.344 160.524C477.097 160.655 476.901 160.837 476.756 161.07C476.614 161.3 476.543 161.562 476.543 161.858V166H475.538ZM480.002 166V159.455H481.008V166H480.002ZM480.514 158.364C480.318 158.364 480.149 158.297 480.007 158.163C479.868 158.03 479.798 157.869 479.798 157.682C479.798 157.494 479.868 157.334 480.007 157.2C480.149 157.067 480.318 157 480.514 157C480.71 157 480.877 157.067 481.017 157.2C481.159 157.334 481.23 157.494 481.23 157.682C481.23 157.869 481.159 158.03 481.017 158.163C480.877 158.297 480.71 158.364 480.514 158.364ZM485.509 166.136C484.896 166.136 484.367 165.991 483.924 165.702C483.481 165.412 483.14 165.013 482.901 164.504C482.663 163.996 482.543 163.415 482.543 162.761C482.543 162.097 482.665 161.51 482.91 161.001C483.157 160.49 483.501 160.091 483.941 159.804C484.384 159.514 484.901 159.369 485.492 159.369C485.952 159.369 486.367 159.455 486.737 159.625C487.106 159.795 487.408 160.034 487.644 160.341C487.88 160.648 488.026 161.006 488.083 161.415H487.077C487.001 161.116 486.83 160.852 486.566 160.622C486.305 160.389 485.952 160.273 485.509 160.273C485.117 160.273 484.773 160.375 484.478 160.58C484.185 160.781 483.957 161.067 483.792 161.436C483.63 161.803 483.549 162.233 483.549 162.727C483.549 163.233 483.629 163.673 483.788 164.048C483.95 164.423 484.177 164.714 484.469 164.922C484.765 165.129 485.112 165.233 485.509 165.233C485.771 165.233 486.008 165.188 486.221 165.097C486.434 165.006 486.614 164.875 486.762 164.705C486.91 164.534 487.015 164.33 487.077 164.091H488.083C488.026 164.477 487.886 164.825 487.661 165.135C487.44 165.442 487.146 165.686 486.779 165.868C486.415 166.047 485.992 166.136 485.509 166.136ZM489.553 166V159.455H490.559V166H489.553ZM490.065 158.364C489.869 158.364 489.7 158.297 489.558 158.163C489.418 158.03 489.349 157.869 489.349 157.682C489.349 157.494 489.418 157.334 489.558 157.2C489.7 157.067 489.869 157 490.065 157C490.261 157 490.428 157.067 490.567 157.2C490.71 157.334 490.781 157.494 490.781 157.682C490.781 157.869 490.71 158.03 490.567 158.163C490.428 158.297 490.261 158.364 490.065 158.364ZM493.407 162.062V166H492.401V159.455H493.373V160.477H493.458C493.611 160.145 493.844 159.878 494.157 159.676C494.469 159.472 494.873 159.369 495.367 159.369C495.81 159.369 496.198 159.46 496.53 159.642C496.863 159.821 497.121 160.094 497.306 160.46C497.49 160.824 497.583 161.284 497.583 161.841V166H496.577V161.909C496.577 161.395 496.444 160.994 496.176 160.707C495.909 160.418 495.543 160.273 495.077 160.273C494.756 160.273 494.469 160.342 494.216 160.482C493.966 160.621 493.769 160.824 493.624 161.091C493.479 161.358 493.407 161.682 493.407 162.062ZM502.062 168.591C501.577 168.591 501.159 168.528 500.81 168.403C500.46 168.281 500.169 168.119 499.936 167.918C499.706 167.719 499.523 167.506 499.386 167.278L500.188 166.716C500.278 166.835 500.393 166.972 500.533 167.125C500.672 167.281 500.862 167.416 501.104 167.53C501.348 167.646 501.668 167.705 502.062 167.705C502.591 167.705 503.027 167.577 503.371 167.321C503.714 167.065 503.886 166.665 503.886 166.119V164.79H503.801C503.727 164.909 503.622 165.057 503.486 165.233C503.352 165.406 503.159 165.561 502.906 165.697C502.656 165.831 502.318 165.898 501.892 165.898C501.364 165.898 500.889 165.773 500.469 165.523C500.051 165.273 499.72 164.909 499.476 164.432C499.234 163.955 499.114 163.375 499.114 162.693C499.114 162.023 499.232 161.439 499.467 160.942C499.703 160.442 500.031 160.055 500.452 159.783C500.872 159.507 501.358 159.369 501.909 159.369C502.335 159.369 502.673 159.44 502.923 159.582C503.176 159.722 503.369 159.881 503.503 160.06C503.639 160.236 503.744 160.381 503.818 160.494H503.92V159.455H504.892V166.188C504.892 166.75 504.764 167.207 504.509 167.56C504.256 167.915 503.915 168.175 503.486 168.339C503.06 168.507 502.585 168.591 502.062 168.591ZM502.028 164.994C502.432 164.994 502.773 164.902 503.051 164.717C503.33 164.533 503.541 164.267 503.686 163.92C503.831 163.574 503.903 163.159 503.903 162.676C503.903 162.205 503.832 161.788 503.69 161.428C503.548 161.067 503.338 160.784 503.06 160.58C502.781 160.375 502.438 160.273 502.028 160.273C501.602 160.273 501.247 160.381 500.963 160.597C500.682 160.812 500.47 161.102 500.328 161.466C500.189 161.83 500.119 162.233 500.119 162.676C500.119 163.131 500.19 163.533 500.332 163.882C500.477 164.229 500.69 164.501 500.972 164.7C501.256 164.896 501.608 164.994 502.028 164.994ZM513.193 156.864L510.381 167.312H509.46L512.273 156.864H513.193ZM468.057 181V172.273H471.006C471.69 172.273 472.25 172.396 472.685 172.643C473.122 172.888 473.446 173.219 473.656 173.636C473.866 174.054 473.972 174.52 473.972 175.034C473.972 175.548 473.866 176.016 473.656 176.436C473.449 176.857 473.128 177.192 472.693 177.442C472.259 177.689 471.702 177.812 471.023 177.812H468.909V176.875H470.989C471.457 176.875 471.834 176.794 472.118 176.632C472.402 176.47 472.608 176.251 472.736 175.976C472.866 175.697 472.932 175.384 472.932 175.034C472.932 174.685 472.866 174.372 472.736 174.097C472.608 173.821 472.401 173.605 472.114 173.449C471.827 173.29 471.446 173.21 470.972 173.21H469.114V181H468.057ZM477.464 181.153C477.049 181.153 476.673 181.075 476.335 180.919C475.996 180.76 475.728 180.531 475.529 180.233C475.33 179.932 475.231 179.568 475.231 179.142C475.231 178.767 475.305 178.463 475.452 178.23C475.6 177.994 475.798 177.81 476.045 177.676C476.292 177.543 476.565 177.443 476.863 177.378C477.164 177.31 477.467 177.256 477.771 177.216C478.168 177.165 478.491 177.126 478.738 177.101C478.988 177.072 479.17 177.026 479.283 176.96C479.4 176.895 479.458 176.781 479.458 176.619V176.585C479.458 176.165 479.343 175.838 479.113 175.605C478.886 175.372 478.54 175.256 478.077 175.256C477.597 175.256 477.221 175.361 476.948 175.571C476.675 175.781 476.484 176.006 476.373 176.244L475.418 175.903C475.589 175.506 475.816 175.196 476.1 174.974C476.387 174.75 476.7 174.594 477.038 174.506C477.379 174.415 477.714 174.369 478.043 174.369C478.254 174.369 478.495 174.395 478.768 174.446C479.043 174.494 479.309 174.595 479.565 174.749C479.823 174.902 480.038 175.134 480.208 175.443C480.379 175.753 480.464 176.168 480.464 176.688V181H479.458V180.114H479.407C479.339 180.256 479.225 180.408 479.066 180.57C478.907 180.732 478.695 180.869 478.431 180.983C478.167 181.097 477.844 181.153 477.464 181.153ZM477.617 180.25C478.015 180.25 478.35 180.172 478.623 180.016C478.898 179.859 479.106 179.658 479.245 179.411C479.387 179.163 479.458 178.903 479.458 178.631V177.71C479.415 177.761 479.322 177.808 479.177 177.851C479.035 177.891 478.87 177.926 478.683 177.957C478.498 177.986 478.317 178.011 478.141 178.034C477.968 178.054 477.827 178.071 477.719 178.085C477.458 178.119 477.214 178.175 476.987 178.251C476.762 178.325 476.58 178.437 476.441 178.588C476.305 178.736 476.237 178.937 476.237 179.193C476.237 179.543 476.366 179.807 476.624 179.986C476.886 180.162 477.217 180.25 477.617 180.25ZM482.713 183.455C482.542 183.455 482.39 183.44 482.257 183.412C482.123 183.386 482.031 183.361 481.98 183.335L482.235 182.449C482.48 182.511 482.696 182.534 482.883 182.517C483.071 182.5 483.237 182.416 483.382 182.266C483.529 182.118 483.664 181.878 483.787 181.545L483.974 181.034L481.554 174.455H482.645L484.451 179.67H484.52L486.326 174.455H487.417L484.639 181.955C484.514 182.293 484.359 182.572 484.174 182.794C483.99 183.018 483.775 183.185 483.531 183.293C483.289 183.401 483.017 183.455 482.713 183.455ZM488.745 181V174.455H489.716V175.477H489.801C489.938 175.128 490.158 174.857 490.462 174.663C490.766 174.467 491.131 174.369 491.557 174.369C491.989 174.369 492.348 174.467 492.635 174.663C492.925 174.857 493.151 175.128 493.313 175.477H493.381C493.549 175.139 493.8 174.871 494.135 174.672C494.471 174.47 494.873 174.369 495.341 174.369C495.926 174.369 496.405 174.553 496.777 174.919C497.15 175.283 497.336 175.849 497.336 176.619V181H496.33V176.619C496.33 176.136 496.198 175.791 495.934 175.584C495.669 175.376 495.358 175.273 495 175.273C494.54 175.273 494.184 175.412 493.931 175.69C493.678 175.966 493.551 176.315 493.551 176.739V181H492.529V176.517C492.529 176.145 492.408 175.845 492.167 175.618C491.925 175.388 491.614 175.273 491.233 175.273C490.972 175.273 490.728 175.342 490.5 175.482C490.276 175.621 490.094 175.814 489.955 176.061C489.819 176.305 489.75 176.588 489.75 176.909V181H488.745ZM501.919 181.136C501.288 181.136 500.744 180.997 500.287 180.719C499.832 180.438 499.481 180.045 499.234 179.543C498.99 179.037 498.868 178.449 498.868 177.778C498.868 177.108 498.99 176.517 499.234 176.006C499.481 175.491 499.825 175.091 500.265 174.804C500.708 174.514 501.225 174.369 501.816 174.369C502.157 174.369 502.494 174.426 502.826 174.54C503.159 174.653 503.461 174.838 503.734 175.094C504.007 175.347 504.224 175.682 504.386 176.099C504.548 176.517 504.629 177.031 504.629 177.642V178.068H499.583V177.199H503.606C503.606 176.83 503.532 176.5 503.385 176.21C503.24 175.92 503.032 175.692 502.762 175.524C502.495 175.357 502.18 175.273 501.816 175.273C501.416 175.273 501.069 175.372 500.777 175.571C500.487 175.767 500.264 176.023 500.108 176.338C499.951 176.653 499.873 176.991 499.873 177.352V177.932C499.873 178.426 499.958 178.845 500.129 179.189C500.302 179.53 500.542 179.79 500.849 179.969C501.156 180.145 501.512 180.233 501.919 180.233C502.183 180.233 502.422 180.196 502.635 180.122C502.85 180.045 503.037 179.932 503.193 179.781C503.349 179.628 503.47 179.437 503.555 179.21L504.527 179.483C504.424 179.812 504.252 180.102 504.011 180.352C503.77 180.599 503.471 180.793 503.116 180.932C502.761 181.068 502.362 181.136 501.919 181.136ZM507.164 177.062V181H506.159V174.455H507.13V175.477H507.216C507.369 175.145 507.602 174.878 507.914 174.676C508.227 174.472 508.63 174.369 509.125 174.369C509.568 174.369 509.956 174.46 510.288 174.642C510.62 174.821 510.879 175.094 511.064 175.46C511.248 175.824 511.341 176.284 511.341 176.841V181H510.335V176.909C510.335 176.395 510.201 175.994 509.934 175.707C509.667 175.418 509.301 175.273 508.835 175.273C508.514 175.273 508.227 175.342 507.974 175.482C507.724 175.621 507.527 175.824 507.382 176.091C507.237 176.358 507.164 176.682 507.164 177.062ZM516.025 174.455V175.307H512.633V174.455H516.025ZM513.621 172.886H514.627V179.125C514.627 179.409 514.668 179.622 514.751 179.764C514.836 179.903 514.944 179.997 515.075 180.045C515.208 180.091 515.349 180.114 515.496 180.114C515.607 180.114 515.698 180.108 515.769 180.097C515.84 180.082 515.897 180.071 515.94 180.062L516.144 180.966C516.076 180.991 515.981 181.017 515.859 181.043C515.737 181.071 515.582 181.085 515.394 181.085C515.11 181.085 514.832 181.024 514.559 180.902C514.289 180.78 514.065 180.594 513.886 180.344C513.71 180.094 513.621 179.778 513.621 179.398V172.886Z" fill="black"/>
<rect x="593" y="119" width="100" height="100" rx="5" fill="#C2E5FD"/>
<path d="M626.58 166.21V165.273H633.125V166.21H630.381V174H629.324V166.21H626.58ZM633.94 174V167.455H634.912V168.443H634.98C635.099 168.119 635.315 167.857 635.627 167.655C635.94 167.453 636.292 167.352 636.684 167.352C636.758 167.352 636.85 167.354 636.961 167.357C637.072 167.359 637.156 167.364 637.213 167.369V168.392C637.179 168.384 637.1 168.371 636.978 168.354C636.859 168.334 636.733 168.324 636.599 168.324C636.281 168.324 635.997 168.391 635.747 168.524C635.5 168.655 635.304 168.837 635.159 169.07C635.017 169.3 634.946 169.562 634.946 169.858V174H633.94ZM638.405 174V167.455H639.411V174H638.405ZM638.916 166.364C638.72 166.364 638.551 166.297 638.409 166.163C638.27 166.03 638.2 165.869 638.2 165.682C638.2 165.494 638.27 165.334 638.409 165.2C638.551 165.067 638.72 165 638.916 165C639.112 165 639.28 165.067 639.419 165.2C639.561 165.334 639.632 165.494 639.632 165.682C639.632 165.869 639.561 166.03 639.419 166.163C639.28 166.297 639.112 166.364 638.916 166.364ZM643.179 174.153C642.764 174.153 642.387 174.075 642.049 173.919C641.711 173.76 641.443 173.531 641.244 173.233C641.045 172.932 640.946 172.568 640.946 172.142C640.946 171.767 641.02 171.463 641.167 171.23C641.315 170.994 641.512 170.81 641.76 170.676C642.007 170.543 642.279 170.443 642.578 170.378C642.879 170.31 643.181 170.256 643.485 170.216C643.883 170.165 644.206 170.126 644.453 170.101C644.703 170.072 644.885 170.026 644.998 169.96C645.115 169.895 645.173 169.781 645.173 169.619V169.585C645.173 169.165 645.058 168.838 644.828 168.605C644.6 168.372 644.255 168.256 643.792 168.256C643.312 168.256 642.936 168.361 642.663 168.571C642.39 168.781 642.199 169.006 642.088 169.244L641.133 168.903C641.304 168.506 641.531 168.196 641.815 167.974C642.102 167.75 642.414 167.594 642.752 167.506C643.093 167.415 643.429 167.369 643.758 167.369C643.968 167.369 644.21 167.395 644.483 167.446C644.758 167.494 645.024 167.595 645.279 167.749C645.538 167.902 645.752 168.134 645.923 168.443C646.093 168.753 646.179 169.168 646.179 169.688V174H645.173V173.114H645.122C645.054 173.256 644.94 173.408 644.781 173.57C644.622 173.732 644.41 173.869 644.146 173.983C643.882 174.097 643.559 174.153 643.179 174.153ZM643.332 173.25C643.73 173.25 644.065 173.172 644.338 173.016C644.613 172.859 644.821 172.658 644.96 172.411C645.102 172.163 645.173 171.903 645.173 171.631V170.71C645.13 170.761 645.037 170.808 644.892 170.851C644.75 170.891 644.585 170.926 644.397 170.957C644.213 170.986 644.032 171.011 643.856 171.034C643.683 171.054 643.542 171.071 643.434 171.085C643.173 171.119 642.929 171.175 642.701 171.251C642.477 171.325 642.295 171.437 642.156 171.588C642.02 171.736 641.951 171.937 641.951 172.193C641.951 172.543 642.081 172.807 642.339 172.986C642.6 173.162 642.931 173.25 643.332 173.25ZM649.02 165.273V174H648.014V165.273H649.02Z" fill="black"/>
<rect x="735" y="119" width="100" height="100" rx="5" fill="#D1EDFF"/>
<path d="M756.75 174H754.057V165.273H756.869C757.716 165.273 758.44 165.447 759.043 165.797C759.645 166.143 760.107 166.642 760.428 167.293C760.749 167.94 760.909 168.716 760.909 169.619C760.909 170.528 760.747 171.311 760.423 171.967C760.099 172.621 759.628 173.124 759.009 173.476C758.389 173.825 757.636 174 756.75 174ZM755.114 173.062H756.682C757.403 173.062 758.001 172.923 758.476 172.645C758.95 172.366 759.304 171.97 759.537 171.456C759.77 170.942 759.886 170.33 759.886 169.619C759.886 168.915 759.771 168.308 759.541 167.8C759.311 167.288 758.967 166.896 758.51 166.624C758.053 166.348 757.483 166.21 756.801 166.21H755.114V173.062ZM764.472 174.153C764.057 174.153 763.68 174.075 763.342 173.919C763.004 173.76 762.736 173.531 762.537 173.233C762.338 172.932 762.239 172.568 762.239 172.142C762.239 171.767 762.313 171.463 762.46 171.23C762.608 170.994 762.805 170.81 763.053 170.676C763.3 170.543 763.572 170.443 763.871 170.378C764.172 170.31 764.474 170.256 764.778 170.216C765.176 170.165 765.499 170.126 765.746 170.101C765.996 170.072 766.178 170.026 766.291 169.96C766.408 169.895 766.466 169.781 766.466 169.619V169.585C766.466 169.165 766.351 168.838 766.121 168.605C765.893 168.372 765.548 168.256 765.085 168.256C764.605 168.256 764.229 168.361 763.956 168.571C763.683 168.781 763.491 169.006 763.381 169.244L762.426 168.903C762.597 168.506 762.824 168.196 763.108 167.974C763.395 167.75 763.707 167.594 764.045 167.506C764.386 167.415 764.722 167.369 765.051 167.369C765.261 167.369 765.503 167.395 765.776 167.446C766.051 167.494 766.317 167.595 766.572 167.749C766.831 167.902 767.045 168.134 767.216 168.443C767.386 168.753 767.472 169.168 767.472 169.688V174H766.466V173.114H766.415C766.347 173.256 766.233 173.408 766.074 173.57C765.915 173.732 765.703 173.869 765.439 173.983C765.175 174.097 764.852 174.153 764.472 174.153ZM764.625 173.25C765.023 173.25 765.358 173.172 765.631 173.016C765.906 172.859 766.114 172.658 766.253 172.411C766.395 172.163 766.466 171.903 766.466 171.631V170.71C766.423 170.761 766.33 170.808 766.185 170.851C766.043 170.891 765.878 170.926 765.69 170.957C765.506 170.986 765.325 171.011 765.149 171.034C764.976 171.054 764.835 171.071 764.727 171.085C764.466 171.119 764.222 171.175 763.994 171.251C763.77 171.325 763.588 171.437 763.449 171.588C763.313 171.736 763.244 171.937 763.244 172.193C763.244 172.543 763.374 172.807 763.632 172.986C763.893 173.162 764.224 173.25 764.625 173.25ZM773.944 168.92L773.04 169.176C772.983 169.026 772.9 168.879 772.789 168.737C772.681 168.592 772.533 168.473 772.346 168.379C772.158 168.286 771.918 168.239 771.625 168.239C771.225 168.239 770.891 168.331 770.624 168.516C770.36 168.697 770.228 168.929 770.228 169.21C770.228 169.46 770.319 169.658 770.5 169.803C770.682 169.947 770.966 170.068 771.353 170.165L772.324 170.403C772.909 170.545 773.346 170.763 773.632 171.055C773.919 171.345 774.063 171.719 774.063 172.176C774.063 172.551 773.955 172.886 773.739 173.182C773.526 173.477 773.228 173.71 772.844 173.881C772.461 174.051 772.015 174.136 771.506 174.136C770.838 174.136 770.286 173.991 769.848 173.702C769.411 173.412 769.134 172.989 769.017 172.432L769.972 172.193C770.063 172.545 770.235 172.81 770.488 172.986C770.743 173.162 771.077 173.25 771.489 173.25C771.958 173.25 772.33 173.151 772.605 172.952C772.884 172.75 773.023 172.509 773.023 172.227C773.023 172 772.944 171.81 772.784 171.656C772.625 171.5 772.381 171.384 772.051 171.307L770.961 171.051C770.361 170.909 769.921 170.689 769.64 170.391C769.361 170.089 769.222 169.713 769.222 169.261C769.222 168.892 769.326 168.565 769.533 168.281C769.743 167.997 770.029 167.774 770.39 167.612C770.753 167.45 771.165 167.369 771.625 167.369C772.273 167.369 772.782 167.511 773.151 167.795C773.523 168.08 773.787 168.455 773.944 168.92ZM776.582 170.062V174H775.577V165.273H776.582V168.477H776.668C776.821 168.139 777.051 167.871 777.358 167.672C777.668 167.47 778.08 167.369 778.594 167.369C779.04 167.369 779.43 167.459 779.766 167.638C780.101 167.814 780.361 168.085 780.545 168.452C780.733 168.815 780.827 169.278 780.827 169.841V174H779.821V169.909C779.821 169.389 779.686 168.987 779.416 168.703C779.149 168.416 778.778 168.273 778.304 168.273C777.974 168.273 777.679 168.342 777.418 168.482C777.159 168.621 776.955 168.824 776.804 169.091C776.656 169.358 776.582 169.682 776.582 170.062ZM782.803 174V165.273H783.809V168.494H783.894C783.968 168.381 784.07 168.236 784.201 168.06C784.334 167.881 784.525 167.722 784.772 167.582C785.022 167.44 785.36 167.369 785.786 167.369C786.337 167.369 786.823 167.507 787.243 167.783C787.664 168.058 787.992 168.449 788.228 168.955C788.463 169.46 788.581 170.057 788.581 170.744C788.581 171.438 788.463 172.038 788.228 172.547C787.992 173.053 787.665 173.445 787.248 173.723C786.83 173.999 786.348 174.136 785.803 174.136C785.382 174.136 785.046 174.067 784.793 173.928C784.54 173.786 784.346 173.625 784.209 173.446C784.073 173.264 783.968 173.114 783.894 172.994H783.775V174H782.803ZM783.792 170.727C783.792 171.222 783.864 171.658 784.009 172.036C784.154 172.411 784.365 172.705 784.644 172.918C784.922 173.128 785.263 173.233 785.667 173.233C786.087 173.233 786.438 173.122 786.719 172.901C787.003 172.676 787.216 172.375 787.358 171.997C787.503 171.616 787.576 171.193 787.576 170.727C787.576 170.267 787.505 169.852 787.363 169.483C787.223 169.111 787.012 168.817 786.728 168.601C786.446 168.382 786.093 168.273 785.667 168.273C785.257 168.273 784.914 168.376 784.635 168.584C784.357 168.788 784.147 169.075 784.005 169.445C783.863 169.811 783.792 170.239 783.792 170.727ZM792.779 174.136C792.188 174.136 791.669 173.996 791.223 173.714C790.78 173.433 790.434 173.04 790.184 172.534C789.936 172.028 789.813 171.437 789.813 170.761C789.813 170.08 789.936 169.484 790.184 168.976C790.434 168.467 790.78 168.072 791.223 167.791C791.669 167.51 792.188 167.369 792.779 167.369C793.37 167.369 793.887 167.51 794.33 167.791C794.776 168.072 795.123 168.467 795.37 168.976C795.62 169.484 795.745 170.08 795.745 170.761C795.745 171.437 795.62 172.028 795.37 172.534C795.123 173.04 794.776 173.433 794.33 173.714C793.887 173.996 793.37 174.136 792.779 174.136ZM792.779 173.233C793.228 173.233 793.597 173.118 793.887 172.888C794.176 172.658 794.391 172.355 794.53 171.98C794.669 171.605 794.739 171.199 794.739 170.761C794.739 170.324 794.669 169.916 794.53 169.538C794.391 169.161 794.176 168.855 793.887 168.622C793.597 168.389 793.228 168.273 792.779 168.273C792.33 168.273 791.961 168.389 791.671 168.622C791.381 168.855 791.167 169.161 791.027 169.538C790.888 169.916 790.819 170.324 790.819 170.761C790.819 171.199 790.888 171.605 791.027 171.98C791.167 172.355 791.381 172.658 791.671 172.888C791.961 173.118 792.33 173.233 792.779 173.233ZM799.206 174.153C798.791 174.153 798.415 174.075 798.077 173.919C797.739 173.76 797.47 173.531 797.271 173.233C797.072 172.932 796.973 172.568 796.973 172.142C796.973 171.767 797.047 171.463 797.195 171.23C797.342 170.994 797.54 170.81 797.787 170.676C798.034 170.543 798.307 170.443 798.605 170.378C798.906 170.31 799.209 170.256 799.513 170.216C799.911 170.165 800.233 170.126 800.48 170.101C800.73 170.072 800.912 170.026 801.026 169.96C801.142 169.895 801.2 169.781 801.2 169.619V169.585C801.2 169.165 801.085 168.838 800.855 168.605C800.628 168.372 800.283 168.256 799.82 168.256C799.339 168.256 798.963 168.361 798.69 168.571C798.418 168.781 798.226 169.006 798.115 169.244L797.161 168.903C797.331 168.506 797.558 168.196 797.842 167.974C798.129 167.75 798.442 167.594 798.78 167.506C799.121 167.415 799.456 167.369 799.786 167.369C799.996 167.369 800.237 167.395 800.51 167.446C800.786 167.494 801.051 167.595 801.307 167.749C801.565 167.902 801.78 168.134 801.95 168.443C802.121 168.753 802.206 169.168 802.206 169.688V174H801.2V173.114H801.149C801.081 173.256 800.967 173.408 800.808 173.57C800.649 173.732 800.438 173.869 800.173 173.983C799.909 174.097 799.587 174.153 799.206 174.153ZM799.359 173.25C799.757 173.25 800.092 173.172 800.365 173.016C800.641 172.859 800.848 172.658 800.987 172.411C801.129 172.163 801.2 171.903 801.2 171.631V170.71C801.158 170.761 801.064 170.808 800.919 170.851C800.777 170.891 800.612 170.926 800.425 170.957C800.24 170.986 800.06 171.011 799.884 171.034C799.71 171.054 799.57 171.071 799.462 171.085C799.2 171.119 798.956 171.175 798.729 171.251C798.504 171.325 798.322 171.437 798.183 171.588C798.047 171.736 797.979 171.937 797.979 172.193C797.979 172.543 798.108 172.807 798.366 172.986C798.628 173.162 798.959 173.25 799.359 173.25ZM804.042 174V167.455H805.013V168.443H805.081C805.201 168.119 805.417 167.857 805.729 167.655C806.042 167.453 806.394 167.352 806.786 167.352C806.86 167.352 806.952 167.354 807.063 167.357C807.174 167.359 807.257 167.364 807.314 167.369V168.392C807.28 168.384 807.202 168.371 807.08 168.354C806.961 168.334 806.834 168.324 806.701 168.324C806.382 168.324 806.098 168.391 805.848 168.524C805.601 168.655 805.405 168.837 805.26 169.07C805.118 169.3 805.047 169.562 805.047 169.858V174H804.042ZM810.779 174.136C810.233 174.136 809.752 173.999 809.334 173.723C808.917 173.445 808.59 173.053 808.354 172.547C808.118 172.038 808 171.438 808 170.744C808 170.057 808.118 169.46 808.354 168.955C808.59 168.449 808.918 168.058 809.338 167.783C809.759 167.507 810.245 167.369 810.796 167.369C811.222 167.369 811.559 167.44 811.806 167.582C812.056 167.722 812.246 167.881 812.377 168.06C812.51 168.236 812.614 168.381 812.688 168.494H812.773V165.273H813.779V174H812.807V172.994H812.688C812.614 173.114 812.509 173.264 812.373 173.446C812.236 173.625 812.042 173.786 811.789 173.928C811.536 174.067 811.199 174.136 810.779 174.136ZM810.915 173.233C811.319 173.233 811.659 173.128 811.938 172.918C812.216 172.705 812.428 172.411 812.573 172.036C812.718 171.658 812.79 171.222 812.79 170.727C812.79 170.239 812.719 169.811 812.577 169.445C812.435 169.075 812.225 168.788 811.946 168.584C811.668 168.376 811.324 168.273 810.915 168.273C810.489 168.273 810.134 168.382 809.85 168.601C809.569 168.817 809.357 169.111 809.215 169.483C809.076 169.852 809.006 170.267 809.006 170.727C809.006 171.193 809.077 171.616 809.219 171.997C809.364 172.375 809.577 172.676 809.858 172.901C810.142 173.122 810.495 173.233 810.915 173.233Z" fill="black"/>
<path d="M278.354 166.354C278.549 166.158 278.549 165.842 278.354 165.646L275.172 162.464C274.976 162.269 274.66 162.269 274.464 162.464C274.269 162.66 274.269 162.976 274.464 163.172L277.293 166L274.464 168.828C274.269 169.024 274.269 169.34 274.464 169.536C274.66 169.731 274.976 169.731 275.172 169.536L278.354 166.354ZM248 166V166.5H278V166V165.5H248V166Z" fill="black"/>
<path d="M434.354 166.354C434.549 166.158 434.549 165.842 434.354 165.646L431.172 162.464C430.976 162.269 430.66 162.269 430.464 162.464C430.269 162.66 430.269 162.976 430.464 163.172L433.293 166L430.464 168.828C430.269 169.024 430.269 169.34 430.464 169.536C430.66 169.731 430.976 169.731 431.172 169.536L434.354 166.354ZM404 166V166.5H434V166V165.5H404V166Z" fill="black"/>
<path d="M585.354 166.354C585.549 166.158 585.549 165.842 585.354 165.646L582.172 162.464C581.976 162.269 581.66 162.269 581.464 162.464C581.269 162.66 581.269 162.976 581.464 163.172L584.293 166L581.464 168.828C581.269 169.024 581.269 169.34 581.464 169.536C581.66 169.731 581.976 169.731 582.172 169.536L585.354 166.354ZM555 166V166.5H585V166V165.5H555V166Z" fill="black"/>
<path d="M728.354 166.354C728.549 166.158 728.549 165.842 728.354 165.646L725.172 162.464C724.976 162.269 724.66 162.269 724.464 162.464C724.269 162.66 724.269 162.976 724.464 163.172L727.293 166L724.464 168.828C724.269 169.024 724.269 169.34 724.464 169.536C724.66 169.731 724.976 169.731 725.172 169.536L728.354 166.354ZM698 166V166.5H728V166V165.5H698V166Z" fill="black"/>
</svg>
