<svg width="979" height="337" viewBox="0 0 979 337" fill="none" xmlns="http://www.w3.org/2000/svg">
<rect width="979" height="337" fill="white"/>
<rect x="214" y="119" width="100" height="100" rx="5" fill="#87CFFF"/>
<path d="M241.83 167.455C241.778 167.023 241.571 166.688 241.207 166.449C240.844 166.21 240.398 166.091 239.869 166.091C239.483 166.091 239.145 166.153 238.855 166.278C238.568 166.403 238.344 166.575 238.182 166.794C238.023 167.013 237.943 167.261 237.943 167.54C237.943 167.773 237.999 167.973 238.109 168.141C238.223 168.305 238.368 168.443 238.544 168.554C238.72 168.662 238.905 168.751 239.098 168.822C239.291 168.891 239.469 168.946 239.631 168.989L240.517 169.227C240.744 169.287 240.997 169.369 241.276 169.474C241.557 169.58 241.825 169.723 242.081 169.905C242.339 170.084 242.553 170.314 242.72 170.595C242.888 170.876 242.972 171.222 242.972 171.631C242.972 172.102 242.848 172.528 242.601 172.909C242.357 173.29 241.999 173.592 241.527 173.817C241.058 174.041 240.489 174.153 239.818 174.153C239.193 174.153 238.652 174.053 238.195 173.851C237.74 173.649 237.382 173.368 237.121 173.007C236.862 172.646 236.716 172.227 236.682 171.75H237.773C237.801 172.08 237.912 172.352 238.105 172.568C238.301 172.781 238.548 172.94 238.847 173.045C239.148 173.148 239.472 173.199 239.818 173.199C240.222 173.199 240.584 173.134 240.905 173.003C241.226 172.869 241.48 172.685 241.668 172.449C241.855 172.21 241.949 171.932 241.949 171.614C241.949 171.324 241.868 171.088 241.706 170.906C241.544 170.724 241.331 170.577 241.067 170.463C240.803 170.349 240.517 170.25 240.21 170.165L239.136 169.858C238.455 169.662 237.915 169.382 237.517 169.018C237.119 168.655 236.92 168.179 236.92 167.591C236.92 167.102 237.053 166.676 237.317 166.312C237.584 165.946 237.942 165.662 238.391 165.46C238.842 165.256 239.347 165.153 239.903 165.153C240.466 165.153 240.966 165.254 241.403 165.456C241.841 165.655 242.188 165.928 242.443 166.274C242.702 166.621 242.838 167.014 242.852 167.455H241.83ZM244.573 174V167.455H245.578V174H244.573ZM245.084 166.364C244.888 166.364 244.719 166.297 244.577 166.163C244.438 166.03 244.368 165.869 244.368 165.682C244.368 165.494 244.438 165.334 244.577 165.2C244.719 165.067 244.888 165 245.084 165C245.28 165 245.448 165.067 245.587 165.2C245.729 165.334 245.8 165.494 245.8 165.682C245.8 165.869 245.729 166.03 245.587 166.163C245.448 166.297 245.28 166.364 245.084 166.364ZM250.062 176.591C249.577 176.591 249.159 176.528 248.81 176.403C248.46 176.281 248.169 176.119 247.936 175.918C247.706 175.719 247.523 175.506 247.386 175.278L248.188 174.716C248.278 174.835 248.393 174.972 248.533 175.125C248.672 175.281 248.862 175.416 249.104 175.53C249.348 175.646 249.668 175.705 250.062 175.705C250.591 175.705 251.027 175.577 251.371 175.321C251.714 175.065 251.886 174.665 251.886 174.119V172.79H251.801C251.727 172.909 251.622 173.057 251.486 173.233C251.352 173.406 251.159 173.561 250.906 173.697C250.656 173.831 250.318 173.898 249.892 173.898C249.364 173.898 248.889 173.773 248.469 173.523C248.051 173.273 247.72 172.909 247.476 172.432C247.234 171.955 247.114 171.375 247.114 170.693C247.114 170.023 247.232 169.439 247.467 168.942C247.703 168.442 248.031 168.055 248.452 167.783C248.872 167.507 249.358 167.369 249.909 167.369C250.335 167.369 250.673 167.44 250.923 167.582C251.176 167.722 251.369 167.881 251.503 168.06C251.639 168.236 251.744 168.381 251.818 168.494H251.92V167.455H252.892V174.188C252.892 174.75 252.764 175.207 252.509 175.56C252.256 175.915 251.915 176.175 251.486 176.339C251.06 176.507 250.585 176.591 250.062 176.591ZM250.028 172.994C250.432 172.994 250.773 172.902 251.051 172.717C251.33 172.533 251.541 172.267 251.686 171.92C251.831 171.574 251.903 171.159 251.903 170.676C251.903 170.205 251.832 169.788 251.69 169.428C251.548 169.067 251.338 168.784 251.06 168.58C250.781 168.375 250.438 168.273 250.028 168.273C249.602 168.273 249.247 168.381 248.963 168.597C248.682 168.812 248.47 169.102 248.328 169.466C248.189 169.83 248.119 170.233 248.119 170.676C248.119 171.131 248.19 171.533 248.332 171.882C248.477 172.229 248.69 172.501 248.972 172.7C249.256 172.896 249.608 172.994 250.028 172.994ZM255.739 170.062V174H254.733V167.455H255.705V168.477H255.79C255.943 168.145 256.176 167.878 256.489 167.676C256.801 167.472 257.205 167.369 257.699 167.369C258.142 167.369 258.53 167.46 258.862 167.642C259.195 167.821 259.453 168.094 259.638 168.46C259.822 168.824 259.915 169.284 259.915 169.841V174H258.909V169.909C258.909 169.395 258.776 168.994 258.509 168.707C258.241 168.418 257.875 168.273 257.409 168.273C257.088 168.273 256.801 168.342 256.548 168.482C256.298 168.621 256.101 168.824 255.956 169.091C255.811 169.358 255.739 169.682 255.739 170.062ZM270.991 165.273H272.048V171.051C272.048 171.648 271.907 172.18 271.626 172.649C271.348 173.115 270.954 173.483 270.446 173.753C269.937 174.02 269.341 174.153 268.656 174.153C267.971 174.153 267.375 174.02 266.866 173.753C266.358 173.483 265.963 173.115 265.681 172.649C265.403 172.18 265.264 171.648 265.264 171.051V165.273H266.321V170.966C266.321 171.392 266.414 171.771 266.602 172.104C266.789 172.433 267.056 172.693 267.403 172.884C267.752 173.071 268.17 173.165 268.656 173.165C269.142 173.165 269.559 173.071 269.909 172.884C270.258 172.693 270.525 172.433 270.71 172.104C270.897 171.771 270.991 171.392 270.991 170.966V165.273ZM274.022 176.455V167.455H274.994V168.494H275.113C275.187 168.381 275.289 168.236 275.42 168.06C275.553 167.881 275.744 167.722 275.991 167.582C276.241 167.44 276.579 167.369 277.005 167.369C277.556 167.369 278.042 167.507 278.462 167.783C278.883 168.058 279.211 168.449 279.447 168.955C279.683 169.46 279.8 170.057 279.8 170.744C279.8 171.438 279.683 172.038 279.447 172.547C279.211 173.053 278.884 173.445 278.467 173.723C278.049 173.999 277.567 174.136 277.022 174.136C276.602 174.136 276.265 174.067 276.012 173.928C275.759 173.786 275.565 173.625 275.428 173.446C275.292 173.264 275.187 173.114 275.113 172.994H275.028V176.455H274.022ZM275.011 170.727C275.011 171.222 275.083 171.658 275.228 172.036C275.373 172.411 275.585 172.705 275.863 172.918C276.141 173.128 276.482 173.233 276.886 173.233C277.306 173.233 277.657 173.122 277.938 172.901C278.222 172.676 278.435 172.375 278.577 171.997C278.722 171.616 278.795 171.193 278.795 170.727C278.795 170.267 278.724 169.852 278.582 169.483C278.442 169.111 278.231 168.817 277.947 168.601C277.665 168.382 277.312 168.273 276.886 168.273C276.477 168.273 276.133 168.376 275.854 168.584C275.576 168.788 275.366 169.075 275.224 169.445C275.082 169.811 275.011 170.239 275.011 170.727Z" fill="black"/>
<rect x="363" y="119" width="100" height="100" rx="5" fill="#ACDEFF"/>
<path d="M377.057 164V155.273H382.324V156.21H378.114V159.159H382.051V160.097H378.114V163.062H382.392V164H377.057ZM384.842 157.455L386.411 160.131L387.979 157.455H389.138L387.024 160.727L389.138 164H387.979L386.411 161.46L384.842 164H383.683L385.763 160.727L383.683 157.455H384.842ZM390.573 166.455V157.455H391.544V158.494H391.664C391.738 158.381 391.84 158.236 391.971 158.06C392.104 157.881 392.294 157.722 392.542 157.582C392.792 157.44 393.13 157.369 393.556 157.369C394.107 157.369 394.593 157.507 395.013 157.783C395.434 158.058 395.762 158.449 395.998 158.955C396.233 159.46 396.351 160.057 396.351 160.744C396.351 161.438 396.233 162.038 395.998 162.547C395.762 163.053 395.435 163.445 395.017 163.723C394.6 163.999 394.118 164.136 393.573 164.136C393.152 164.136 392.816 164.067 392.563 163.928C392.31 163.786 392.115 163.625 391.979 163.446C391.843 163.264 391.738 163.114 391.664 162.994H391.578V166.455H390.573ZM391.561 160.727C391.561 161.222 391.634 161.658 391.779 162.036C391.924 162.411 392.135 162.705 392.414 162.918C392.692 163.128 393.033 163.233 393.436 163.233C393.857 163.233 394.208 163.122 394.489 162.901C394.773 162.676 394.986 162.375 395.128 161.997C395.273 161.616 395.346 161.193 395.346 160.727C395.346 160.267 395.275 159.852 395.132 159.483C394.993 159.111 394.782 158.817 394.498 158.601C394.216 158.382 393.863 158.273 393.436 158.273C393.027 158.273 392.684 158.376 392.405 158.584C392.127 158.788 391.917 159.075 391.775 159.445C391.632 159.811 391.561 160.239 391.561 160.727ZM400.63 164.136C399.999 164.136 399.455 163.997 398.998 163.719C398.543 163.438 398.192 163.045 397.945 162.543C397.701 162.037 397.578 161.449 397.578 160.778C397.578 160.108 397.701 159.517 397.945 159.006C398.192 158.491 398.536 158.091 398.976 157.804C399.419 157.514 399.936 157.369 400.527 157.369C400.868 157.369 401.205 157.426 401.537 157.54C401.87 157.653 402.172 157.838 402.445 158.094C402.718 158.347 402.935 158.682 403.097 159.099C403.259 159.517 403.34 160.031 403.34 160.642V161.068H398.294V160.199H402.317C402.317 159.83 402.243 159.5 402.096 159.21C401.951 158.92 401.743 158.692 401.473 158.524C401.206 158.357 400.891 158.273 400.527 158.273C400.127 158.273 399.78 158.372 399.488 158.571C399.198 158.767 398.975 159.023 398.819 159.338C398.662 159.653 398.584 159.991 398.584 160.352V160.932C398.584 161.426 398.669 161.845 398.84 162.189C399.013 162.53 399.253 162.79 399.56 162.969C399.867 163.145 400.223 163.233 400.63 163.233C400.894 163.233 401.132 163.196 401.346 163.122C401.561 163.045 401.748 162.932 401.904 162.781C402.06 162.628 402.181 162.437 402.266 162.21L403.238 162.483C403.135 162.812 402.963 163.102 402.722 163.352C402.48 163.599 402.182 163.793 401.827 163.932C401.472 164.068 401.073 164.136 400.63 164.136ZM404.87 164V157.455H405.841V158.443H405.909C406.029 158.119 406.245 157.857 406.557 157.655C406.87 157.453 407.222 157.352 407.614 157.352C407.688 157.352 407.78 157.354 407.891 157.357C408.002 157.359 408.086 157.364 408.142 157.369V158.392C408.108 158.384 408.03 158.371 407.908 158.354C407.789 158.334 407.662 158.324 407.529 158.324C407.211 158.324 406.926 158.391 406.676 158.524C406.429 158.655 406.233 158.837 406.088 159.07C405.946 159.3 405.875 159.562 405.875 159.858V164H404.87ZM409.335 164V157.455H410.34V164H409.335ZM409.846 156.364C409.65 156.364 409.481 156.297 409.339 156.163C409.2 156.03 409.13 155.869 409.13 155.682C409.13 155.494 409.2 155.334 409.339 155.2C409.481 155.067 409.65 155 409.846 155C410.042 155 410.21 155.067 410.349 155.2C410.491 155.334 410.562 155.494 410.562 155.682C410.562 155.869 410.491 156.03 410.349 156.163C410.21 156.297 410.042 156.364 409.846 156.364ZM414.926 164.136C414.296 164.136 413.752 163.997 413.294 163.719C412.84 163.438 412.489 163.045 412.242 162.543C411.998 162.037 411.875 161.449 411.875 160.778C411.875 160.108 411.998 159.517 412.242 159.006C412.489 158.491 412.833 158.091 413.273 157.804C413.716 157.514 414.233 157.369 414.824 157.369C415.165 157.369 415.502 157.426 415.834 157.54C416.167 157.653 416.469 157.838 416.742 158.094C417.015 158.347 417.232 158.682 417.394 159.099C417.556 159.517 417.637 160.031 417.637 160.642V161.068H412.591V160.199H416.614C416.614 159.83 416.54 159.5 416.392 159.21C416.248 158.92 416.04 158.692 415.77 158.524C415.503 158.357 415.188 158.273 414.824 158.273C414.424 158.273 414.077 158.372 413.784 158.571C413.495 158.767 413.272 159.023 413.115 159.338C412.959 159.653 412.881 159.991 412.881 160.352V160.932C412.881 161.426 412.966 161.845 413.137 162.189C413.31 162.53 413.55 162.79 413.857 162.969C414.164 163.145 414.52 163.233 414.926 163.233C415.191 163.233 415.429 163.196 415.642 163.122C415.858 163.045 416.044 162.932 416.201 162.781C416.357 162.628 416.478 162.437 416.563 162.21L417.534 162.483C417.432 162.812 417.26 163.102 417.019 163.352C416.777 163.599 416.479 163.793 416.124 163.932C415.769 164.068 415.37 164.136 414.926 164.136ZM420.172 160.062V164H419.167V157.455H420.138V158.477H420.223C420.377 158.145 420.61 157.878 420.922 157.676C421.235 157.472 421.638 157.369 422.132 157.369C422.576 157.369 422.963 157.46 423.296 157.642C423.628 157.821 423.887 158.094 424.071 158.46C424.256 158.824 424.348 159.284 424.348 159.841V164H423.343V159.909C423.343 159.395 423.209 158.994 422.942 158.707C422.675 158.418 422.309 158.273 421.843 158.273C421.522 158.273 421.235 158.342 420.982 158.482C420.732 158.621 420.534 158.824 420.39 159.091C420.245 159.358 420.172 159.682 420.172 160.062ZM428.845 164.136C428.232 164.136 427.703 163.991 427.26 163.702C426.817 163.412 426.476 163.013 426.237 162.504C425.999 161.996 425.879 161.415 425.879 160.761C425.879 160.097 426.001 159.51 426.246 159.001C426.493 158.49 426.837 158.091 427.277 157.804C427.72 157.514 428.237 157.369 428.828 157.369C429.288 157.369 429.703 157.455 430.072 157.625C430.442 157.795 430.744 158.034 430.98 158.341C431.216 158.648 431.362 159.006 431.419 159.415H430.413C430.337 159.116 430.166 158.852 429.902 158.622C429.641 158.389 429.288 158.273 428.845 158.273C428.453 158.273 428.109 158.375 427.814 158.58C427.521 158.781 427.293 159.067 427.128 159.436C426.966 159.803 426.885 160.233 426.885 160.727C426.885 161.233 426.964 161.673 427.124 162.048C427.286 162.423 427.513 162.714 427.805 162.922C428.101 163.129 428.447 163.233 428.845 163.233C429.107 163.233 429.344 163.188 429.557 163.097C429.77 163.006 429.95 162.875 430.098 162.705C430.246 162.534 430.351 162.33 430.413 162.091H431.419C431.362 162.477 431.222 162.825 430.997 163.135C430.776 163.442 430.482 163.686 430.115 163.868C429.751 164.047 429.328 164.136 428.845 164.136ZM435.634 164.136C435.003 164.136 434.459 163.997 434.001 163.719C433.547 163.438 433.196 163.045 432.949 162.543C432.705 162.037 432.582 161.449 432.582 160.778C432.582 160.108 432.705 159.517 432.949 159.006C433.196 158.491 433.54 158.091 433.98 157.804C434.423 157.514 434.94 157.369 435.531 157.369C435.872 157.369 436.209 157.426 436.541 157.54C436.874 157.653 437.176 157.838 437.449 158.094C437.722 158.347 437.939 158.682 438.101 159.099C438.263 159.517 438.344 160.031 438.344 160.642V161.068H433.298V160.199H437.321C437.321 159.83 437.247 159.5 437.099 159.21C436.955 158.92 436.747 158.692 436.477 158.524C436.21 158.357 435.895 158.273 435.531 158.273C435.131 158.273 434.784 158.372 434.491 158.571C434.202 158.767 433.979 159.023 433.822 159.338C433.666 159.653 433.588 159.991 433.588 160.352V160.932C433.588 161.426 433.673 161.845 433.844 162.189C434.017 162.53 434.257 162.79 434.564 162.969C434.871 163.145 435.227 163.233 435.634 163.233C435.898 163.233 436.136 163.196 436.349 163.122C436.565 163.045 436.751 162.932 436.908 162.781C437.064 162.628 437.185 162.437 437.27 162.21L438.241 162.483C438.139 162.812 437.967 163.102 437.726 163.352C437.484 163.599 437.186 163.793 436.831 163.932C436.476 164.068 436.077 164.136 435.634 164.136ZM377.057 179V170.273H380.006C380.69 170.273 381.25 170.396 381.685 170.643C382.122 170.888 382.446 171.219 382.656 171.636C382.866 172.054 382.972 172.52 382.972 173.034C382.972 173.548 382.866 174.016 382.656 174.436C382.449 174.857 382.128 175.192 381.693 175.442C381.259 175.689 380.702 175.812 380.023 175.812H377.909V174.875H379.989C380.457 174.875 380.834 174.794 381.118 174.632C381.402 174.47 381.608 174.251 381.736 173.976C381.866 173.697 381.932 173.384 381.932 173.034C381.932 172.685 381.866 172.372 381.736 172.097C381.608 171.821 381.401 171.605 381.114 171.449C380.827 171.29 380.446 171.21 379.972 171.21H378.114V179H377.057ZM384.538 179V172.455H385.509V173.443H385.577C385.697 173.119 385.913 172.857 386.225 172.655C386.538 172.453 386.89 172.352 387.282 172.352C387.356 172.352 387.448 172.354 387.559 172.357C387.67 172.359 387.754 172.364 387.81 172.369V173.392C387.776 173.384 387.698 173.371 387.576 173.354C387.457 173.334 387.33 173.324 387.197 173.324C386.879 173.324 386.594 173.391 386.344 173.524C386.097 173.655 385.901 173.837 385.756 174.07C385.614 174.3 385.543 174.562 385.543 174.858V179H384.538ZM391.462 179.136C390.871 179.136 390.353 178.996 389.907 178.714C389.464 178.433 389.117 178.04 388.867 177.534C388.62 177.028 388.496 176.437 388.496 175.761C388.496 175.08 388.62 174.484 388.867 173.976C389.117 173.467 389.464 173.072 389.907 172.791C390.353 172.51 390.871 172.369 391.462 172.369C392.053 172.369 392.57 172.51 393.013 172.791C393.46 173.072 393.806 173.467 394.053 173.976C394.303 174.484 394.428 175.08 394.428 175.761C394.428 176.437 394.303 177.028 394.053 177.534C393.806 178.04 393.46 178.433 393.013 178.714C392.57 178.996 392.053 179.136 391.462 179.136ZM391.462 178.233C391.911 178.233 392.281 178.118 392.57 177.888C392.86 177.658 393.075 177.355 393.214 176.98C393.353 176.605 393.423 176.199 393.423 175.761C393.423 175.324 393.353 174.916 393.214 174.538C393.075 174.161 392.86 173.855 392.57 173.622C392.281 173.389 391.911 173.273 391.462 173.273C391.013 173.273 390.644 173.389 390.354 173.622C390.065 173.855 389.85 174.161 389.711 174.538C389.572 174.916 389.502 175.324 389.502 175.761C389.502 176.199 389.572 176.605 389.711 176.98C389.85 177.355 390.065 177.658 390.354 177.888C390.644 178.118 391.013 178.233 391.462 178.233ZM398.435 179.136C397.89 179.136 397.408 178.999 396.99 178.723C396.573 178.445 396.246 178.053 396.01 177.547C395.775 177.038 395.657 176.438 395.657 175.744C395.657 175.057 395.775 174.46 396.01 173.955C396.246 173.449 396.574 173.058 396.995 172.783C397.415 172.507 397.901 172.369 398.452 172.369C398.878 172.369 399.215 172.44 399.462 172.582C399.712 172.722 399.902 172.881 400.033 173.06C400.167 173.236 400.27 173.381 400.344 173.494H400.429V170.273H401.435V179H400.463V177.994H400.344C400.27 178.114 400.165 178.264 400.029 178.446C399.892 178.625 399.698 178.786 399.445 178.928C399.192 179.067 398.855 179.136 398.435 179.136ZM398.571 178.233C398.975 178.233 399.316 178.128 399.594 177.918C399.873 177.705 400.084 177.411 400.229 177.036C400.374 176.658 400.446 176.222 400.446 175.727C400.446 175.239 400.375 174.811 400.233 174.445C400.091 174.075 399.881 173.788 399.603 173.584C399.324 173.376 398.98 173.273 398.571 173.273C398.145 173.273 397.79 173.382 397.506 173.601C397.225 173.817 397.013 174.111 396.871 174.483C396.732 174.852 396.662 175.267 396.662 175.727C396.662 176.193 396.733 176.616 396.875 176.997C397.02 177.375 397.233 177.676 397.515 177.901C397.799 178.122 398.151 178.233 398.571 178.233ZM407.542 176.324V172.455H408.547V179H407.542V177.892H407.473C407.32 178.224 407.081 178.507 406.757 178.74C406.434 178.97 406.025 179.085 405.53 179.085C405.121 179.085 404.757 178.996 404.439 178.817C404.121 178.635 403.871 178.362 403.689 177.999C403.507 177.632 403.417 177.17 403.417 176.614V172.455H404.422V176.545C404.422 177.023 404.556 177.403 404.823 177.688C405.093 177.972 405.436 178.114 405.854 178.114C406.104 178.114 406.358 178.05 406.617 177.922C406.878 177.794 407.097 177.598 407.273 177.334C407.452 177.07 407.542 176.733 407.542 176.324ZM413.048 179.136C412.435 179.136 411.906 178.991 411.463 178.702C411.02 178.412 410.679 178.013 410.44 177.504C410.202 176.996 410.082 176.415 410.082 175.761C410.082 175.097 410.205 174.51 410.449 174.001C410.696 173.49 411.04 173.091 411.48 172.804C411.923 172.514 412.44 172.369 413.031 172.369C413.491 172.369 413.906 172.455 414.276 172.625C414.645 172.795 414.947 173.034 415.183 173.341C415.419 173.648 415.565 174.006 415.622 174.415H414.616C414.54 174.116 414.369 173.852 414.105 173.622C413.844 173.389 413.491 173.273 413.048 173.273C412.656 173.273 412.313 173.375 412.017 173.58C411.724 173.781 411.496 174.067 411.331 174.436C411.169 174.803 411.088 175.233 411.088 175.727C411.088 176.233 411.168 176.673 411.327 177.048C411.489 177.423 411.716 177.714 412.009 177.922C412.304 178.129 412.651 178.233 413.048 178.233C413.31 178.233 413.547 178.188 413.76 178.097C413.973 178.006 414.153 177.875 414.301 177.705C414.449 177.534 414.554 177.33 414.616 177.091H415.622C415.565 177.477 415.425 177.825 415.2 178.135C414.979 178.442 414.685 178.686 414.318 178.868C413.955 179.047 413.531 179.136 413.048 179.136ZM419.939 172.455V173.307H416.547V172.455H419.939ZM417.536 170.886H418.541V177.125C418.541 177.409 418.582 177.622 418.665 177.764C418.75 177.903 418.858 177.997 418.989 178.045C419.122 178.091 419.263 178.114 419.411 178.114C419.521 178.114 419.612 178.108 419.683 178.097C419.754 178.082 419.811 178.071 419.854 178.062L420.058 178.966C419.99 178.991 419.895 179.017 419.773 179.043C419.651 179.071 419.496 179.085 419.308 179.085C419.024 179.085 418.746 179.024 418.473 178.902C418.203 178.78 417.979 178.594 417.8 178.344C417.624 178.094 417.536 177.778 417.536 177.398V170.886Z" fill="black"/>
<rect x="517" y="119" width="100" height="100" rx="5" fill="#B8E3FF"/>
<path d="M552.58 167.21V166.273H559.125V167.21H556.381V175H555.324V167.21H552.58ZM559.94 175V168.455H560.912V169.443H560.98C561.099 169.119 561.315 168.857 561.627 168.655C561.94 168.453 562.292 168.352 562.684 168.352C562.758 168.352 562.85 168.354 562.961 168.357C563.072 168.359 563.156 168.364 563.213 168.369V169.392C563.179 169.384 563.1 169.371 562.978 169.354C562.859 169.334 562.733 169.324 562.599 169.324C562.281 169.324 561.997 169.391 561.747 169.524C561.5 169.655 561.304 169.837 561.159 170.07C561.017 170.3 560.946 170.562 560.946 170.858V175H559.94ZM564.405 175V168.455H565.411V175H564.405ZM564.916 167.364C564.72 167.364 564.551 167.297 564.409 167.163C564.27 167.03 564.2 166.869 564.2 166.682C564.2 166.494 564.27 166.334 564.409 166.2C564.551 166.067 564.72 166 564.916 166C565.112 166 565.28 166.067 565.419 166.2C565.561 166.334 565.632 166.494 565.632 166.682C565.632 166.869 565.561 167.03 565.419 167.163C565.28 167.297 565.112 167.364 564.916 167.364ZM569.179 175.153C568.764 175.153 568.387 175.075 568.049 174.919C567.711 174.76 567.443 174.531 567.244 174.233C567.045 173.932 566.946 173.568 566.946 173.142C566.946 172.767 567.02 172.463 567.167 172.23C567.315 171.994 567.512 171.81 567.76 171.676C568.007 171.543 568.279 171.443 568.578 171.378C568.879 171.31 569.181 171.256 569.485 171.216C569.883 171.165 570.206 171.126 570.453 171.101C570.703 171.072 570.885 171.026 570.998 170.96C571.115 170.895 571.173 170.781 571.173 170.619V170.585C571.173 170.165 571.058 169.838 570.828 169.605C570.6 169.372 570.255 169.256 569.792 169.256C569.312 169.256 568.936 169.361 568.663 169.571C568.39 169.781 568.199 170.006 568.088 170.244L567.133 169.903C567.304 169.506 567.531 169.196 567.815 168.974C568.102 168.75 568.414 168.594 568.752 168.506C569.093 168.415 569.429 168.369 569.758 168.369C569.968 168.369 570.21 168.395 570.483 168.446C570.758 168.494 571.024 168.595 571.279 168.749C571.538 168.902 571.752 169.134 571.923 169.443C572.093 169.753 572.179 170.168 572.179 170.688V175H571.173V174.114H571.122C571.054 174.256 570.94 174.408 570.781 174.57C570.622 174.732 570.41 174.869 570.146 174.983C569.882 175.097 569.559 175.153 569.179 175.153ZM569.332 174.25C569.73 174.25 570.065 174.172 570.338 174.016C570.613 173.859 570.821 173.658 570.96 173.411C571.102 173.163 571.173 172.903 571.173 172.631V171.71C571.13 171.761 571.037 171.808 570.892 171.851C570.75 171.891 570.585 171.926 570.397 171.957C570.213 171.986 570.032 172.011 569.856 172.034C569.683 172.054 569.542 172.071 569.434 172.085C569.173 172.119 568.929 172.175 568.701 172.251C568.477 172.325 568.295 172.437 568.156 172.588C568.02 172.736 567.951 172.937 567.951 173.193C567.951 173.543 568.081 173.807 568.339 173.986C568.6 174.162 568.931 174.25 569.332 174.25ZM575.02 166.273V175H574.014V166.273H575.02Z" fill="black"/>
<rect x="664" y="119" width="100" height="100" rx="5" fill="#C2E5FD"/>
<path d="M687.057 174V165.273H690.006C690.69 165.273 691.25 165.396 691.685 165.643C692.122 165.888 692.446 166.219 692.656 166.636C692.866 167.054 692.972 167.52 692.972 168.034C692.972 168.548 692.866 169.016 692.656 169.436C692.449 169.857 692.128 170.192 691.693 170.442C691.259 170.689 690.702 170.812 690.023 170.812H687.909V169.875H689.989C690.457 169.875 690.834 169.794 691.118 169.632C691.402 169.47 691.608 169.251 691.736 168.976C691.866 168.697 691.932 168.384 691.932 168.034C691.932 167.685 691.866 167.372 691.736 167.097C691.608 166.821 691.401 166.605 691.114 166.449C690.827 166.29 690.446 166.21 689.972 166.21H688.114V174H687.057ZM696.464 174.153C696.049 174.153 695.673 174.075 695.335 173.919C694.996 173.76 694.728 173.531 694.529 173.233C694.33 172.932 694.231 172.568 694.231 172.142C694.231 171.767 694.305 171.463 694.452 171.23C694.6 170.994 694.798 170.81 695.045 170.676C695.292 170.543 695.565 170.443 695.863 170.378C696.164 170.31 696.467 170.256 696.771 170.216C697.168 170.165 697.491 170.126 697.738 170.101C697.988 170.072 698.17 170.026 698.283 169.96C698.4 169.895 698.458 169.781 698.458 169.619V169.585C698.458 169.165 698.343 168.838 698.113 168.605C697.886 168.372 697.54 168.256 697.077 168.256C696.597 168.256 696.221 168.361 695.948 168.571C695.675 168.781 695.484 169.006 695.373 169.244L694.418 168.903C694.589 168.506 694.816 168.196 695.1 167.974C695.387 167.75 695.7 167.594 696.038 167.506C696.379 167.415 696.714 167.369 697.043 167.369C697.254 167.369 697.495 167.395 697.768 167.446C698.043 167.494 698.309 167.595 698.565 167.749C698.823 167.902 699.038 168.134 699.208 168.443C699.379 168.753 699.464 169.168 699.464 169.688V174H698.458V173.114H698.407C698.339 173.256 698.225 173.408 698.066 173.57C697.907 173.732 697.695 173.869 697.431 173.983C697.167 174.097 696.844 174.153 696.464 174.153ZM696.617 173.25C697.015 173.25 697.35 173.172 697.623 173.016C697.898 172.859 698.106 172.658 698.245 172.411C698.387 172.163 698.458 171.903 698.458 171.631V170.71C698.415 170.761 698.322 170.808 698.177 170.851C698.035 170.891 697.87 170.926 697.683 170.957C697.498 170.986 697.317 171.011 697.141 171.034C696.968 171.054 696.827 171.071 696.719 171.085C696.458 171.119 696.214 171.175 695.987 171.251C695.762 171.325 695.58 171.437 695.441 171.588C695.305 171.736 695.237 171.937 695.237 172.193C695.237 172.543 695.366 172.807 695.624 172.986C695.886 173.162 696.217 173.25 696.617 173.25ZM701.713 176.455C701.542 176.455 701.39 176.44 701.257 176.412C701.123 176.386 701.031 176.361 700.98 176.335L701.235 175.449C701.48 175.511 701.696 175.534 701.883 175.517C702.071 175.5 702.237 175.416 702.382 175.266C702.529 175.118 702.664 174.878 702.787 174.545L702.974 174.034L700.554 167.455H701.645L703.451 172.67H703.52L705.326 167.455H706.417L703.639 174.955C703.514 175.293 703.359 175.572 703.174 175.794C702.99 176.018 702.775 176.185 702.531 176.293C702.289 176.401 702.017 176.455 701.713 176.455ZM707.745 174V167.455H708.716V168.477H708.801C708.938 168.128 709.158 167.857 709.462 167.663C709.766 167.467 710.131 167.369 710.557 167.369C710.989 167.369 711.348 167.467 711.635 167.663C711.925 167.857 712.151 168.128 712.313 168.477H712.381C712.549 168.139 712.8 167.871 713.135 167.672C713.471 167.47 713.873 167.369 714.341 167.369C714.926 167.369 715.405 167.553 715.777 167.919C716.15 168.283 716.336 168.849 716.336 169.619V174H715.33V169.619C715.33 169.136 715.198 168.791 714.934 168.584C714.669 168.376 714.358 168.273 714 168.273C713.54 168.273 713.184 168.412 712.931 168.69C712.678 168.966 712.551 169.315 712.551 169.739V174H711.529V169.517C711.529 169.145 711.408 168.845 711.167 168.618C710.925 168.388 710.614 168.273 710.233 168.273C709.972 168.273 709.728 168.342 709.5 168.482C709.276 168.621 709.094 168.814 708.955 169.061C708.819 169.305 708.75 169.588 708.75 169.909V174H707.745ZM720.919 174.136C720.288 174.136 719.744 173.997 719.287 173.719C718.832 173.438 718.481 173.045 718.234 172.543C717.99 172.037 717.868 171.449 717.868 170.778C717.868 170.108 717.99 169.517 718.234 169.006C718.481 168.491 718.825 168.091 719.265 167.804C719.708 167.514 720.225 167.369 720.816 167.369C721.157 167.369 721.494 167.426 721.826 167.54C722.159 167.653 722.461 167.838 722.734 168.094C723.007 168.347 723.224 168.682 723.386 169.099C723.548 169.517 723.629 170.031 723.629 170.642V171.068H718.583V170.199H722.606C722.606 169.83 722.532 169.5 722.385 169.21C722.24 168.92 722.032 168.692 721.762 168.524C721.495 168.357 721.18 168.273 720.816 168.273C720.416 168.273 720.069 168.372 719.777 168.571C719.487 168.767 719.264 169.023 719.108 169.338C718.951 169.653 718.873 169.991 718.873 170.352V170.932C718.873 171.426 718.958 171.845 719.129 172.189C719.302 172.53 719.542 172.79 719.849 172.969C720.156 173.145 720.512 173.233 720.919 173.233C721.183 173.233 721.422 173.196 721.635 173.122C721.85 173.045 722.037 172.932 722.193 172.781C722.349 172.628 722.47 172.437 722.555 172.21L723.527 172.483C723.424 172.812 723.252 173.102 723.011 173.352C722.77 173.599 722.471 173.793 722.116 173.932C721.761 174.068 721.362 174.136 720.919 174.136ZM726.164 170.062V174H725.159V167.455H726.13V168.477H726.216C726.369 168.145 726.602 167.878 726.914 167.676C727.227 167.472 727.63 167.369 728.125 167.369C728.568 167.369 728.956 167.46 729.288 167.642C729.62 167.821 729.879 168.094 730.064 168.46C730.248 168.824 730.341 169.284 730.341 169.841V174H729.335V169.909C729.335 169.395 729.201 168.994 728.934 168.707C728.667 168.418 728.301 168.273 727.835 168.273C727.514 168.273 727.227 168.342 726.974 168.482C726.724 168.621 726.527 168.824 726.382 169.091C726.237 169.358 726.164 169.682 726.164 170.062ZM735.025 167.455V168.307H731.633V167.455H735.025ZM732.621 165.886H733.627V172.125C733.627 172.409 733.668 172.622 733.751 172.764C733.836 172.903 733.944 172.997 734.075 173.045C734.208 173.091 734.349 173.114 734.496 173.114C734.607 173.114 734.698 173.108 734.769 173.097C734.84 173.082 734.897 173.071 734.94 173.062L735.144 173.966C735.076 173.991 734.981 174.017 734.859 174.043C734.737 174.071 734.582 174.085 734.394 174.085C734.11 174.085 733.832 174.024 733.559 173.902C733.289 173.78 733.065 173.594 732.886 173.344C732.71 173.094 732.621 172.778 732.621 172.398V165.886Z" fill="black"/>
<path d="M349.354 166.354C349.549 166.158 349.549 165.842 349.354 165.646L346.172 162.464C345.976 162.269 345.66 162.269 345.464 162.464C345.269 162.66 345.269 162.976 345.464 163.172L348.293 166L345.464 168.828C345.269 169.024 345.269 169.34 345.464 169.536C345.66 169.731 345.976 169.731 346.172 169.536L349.354 166.354ZM319 166V166.5H349V166V165.5H319V166Z" fill="black"/>
<path d="M505.354 166.354C505.549 166.158 505.549 165.842 505.354 165.646L502.172 162.464C501.976 162.269 501.66 162.269 501.464 162.464C501.269 162.66 501.269 162.976 501.464 163.172L504.293 166L501.464 168.828C501.269 169.024 501.269 169.34 501.464 169.536C501.66 169.731 501.976 169.731 502.172 169.536L505.354 166.354ZM475 166V166.5H505V166V165.5H475V166Z" fill="black"/>
<path d="M656.354 166.354C656.549 166.158 656.549 165.842 656.354 165.646L653.172 162.464C652.976 162.269 652.66 162.269 652.464 162.464C652.269 162.66 652.269 162.976 652.464 163.172L655.293 166L652.464 168.828C652.269 169.024 652.269 169.34 652.464 169.536C652.66 169.731 652.976 169.731 653.172 169.536L656.354 166.354ZM626 166V166.5H656V166V165.5H626V166Z" fill="black"/>
</svg>
